<svg width="12" height="12" viewBox="0 0 12 12" fill="none" xmlns="http://www.w3.org/2000/svg">
<path d="M9.6123 5.96191V11.6504H2.11426V5.96191H9.6123Z" stroke="#808080" stroke-width="0.7"/>
<path d="M7.74023 3.47754L9.21777 5.26172H2.57227L4.24609 3.47754H7.74023Z" stroke="#808080" stroke-width="0.7"/>
<path d="M3.5498 3.19531L1.72559 5.1416L0.55957 4.25098L2.56836 2.56738L3.5498 3.19531Z" stroke="#808080" stroke-width="0.7" stroke-linejoin="round"/>
<path d="M11.4148 4.23047L10.031 5.14648L8.42749 3.20898L9.43042 2.56738L11.4148 4.23047Z" stroke="#808080" stroke-width="0.7" stroke-linejoin="round"/>
<mask id="path-5-inside-1_678_13795" fill="white">
<path d="M5.09534 2.18504C5.13916 2.16415 5.17326 2.12704 5.1905 2.08146C5.20774 2.03588 5.2068 1.98537 5.18787 1.94047L4.48927 0.284159C4.47938 0.260698 4.46487 0.239491 4.44661 0.221813C4.42836 0.204136 4.40673 0.190353 4.38305 0.181293C4.35936 0.172233 4.33409 0.168084 4.30877 0.169094C4.28344 0.170104 4.25858 0.176253 4.23568 0.187172L4.10109 0.25134C4.07819 0.262257 4.05773 0.277718 4.04092 0.296793C4.02412 0.315868 4.01132 0.338164 4.0033 0.362338C3.99529 0.386512 3.99222 0.412067 3.99427 0.437465C3.99633 0.462864 4.00347 0.487582 4.01528 0.510134L4.84845 2.10227C4.87104 2.14543 4.90934 2.17814 4.95535 2.19356C5.00136 2.20899 5.05152 2.20593 5.09534 2.18504Z"/>
</mask>
<path d="M5.09534 2.18504L5.39657 2.81691L5.39658 2.81691L5.09534 2.18504ZM5.18787 1.94047L5.83286 1.66846L5.83284 1.66844L5.18787 1.94047ZM4.48927 0.284159L3.84429 0.556178L3.84429 0.556195L4.48927 0.284159ZM4.23568 0.187172L4.53693 0.819032L4.53694 0.81903L4.23568 0.187172ZM4.10109 0.25134L4.40234 0.883201L4.40234 0.8832L4.10109 0.25134ZM4.01528 0.510134L4.63549 0.185574L4.63549 0.185572L4.01528 0.510134ZM4.84845 2.10227L4.22824 2.42683L4.22824 2.42683L4.84845 2.10227ZM5.09534 2.18504L5.39658 2.81691C5.60404 2.718 5.76436 2.54287 5.84521 2.32916L5.1905 2.08146L4.53579 1.83377C4.58215 1.71121 4.67428 1.6103 4.7941 1.55318L5.09534 2.18504ZM5.1905 2.08146L5.84521 2.32916C5.92603 2.11554 5.92162 1.87895 5.83286 1.66846L5.18787 1.94047L4.54288 2.21248C4.49198 2.09178 4.48946 1.95622 4.53579 1.83377L5.1905 2.08146ZM5.18787 1.94047L5.83284 1.66844L5.13425 0.0121219L4.48927 0.284159L3.84429 0.556195L4.54289 2.21251L5.18787 1.94047ZM4.48927 0.284159L5.13426 0.0121393C5.08783 -0.0979359 5.01964 -0.197704 4.93357 -0.281051L4.44661 0.221813L3.95965 0.724678C3.91009 0.676685 3.87092 0.619331 3.84429 0.556178L4.48927 0.284159ZM4.44661 0.221813L4.93357 -0.281051C4.84749 -0.364405 4.74532 -0.429602 4.6331 -0.472521L4.38305 0.181293L4.13299 0.835106C4.06815 0.810307 4.00922 0.772677 3.95965 0.724678L4.44661 0.221813ZM4.38305 0.181293L4.6331 -0.472521C4.52087 -0.515445 4.40104 -0.535144 4.28087 -0.53035L4.30877 0.169094L4.33667 0.868538C4.26714 0.871311 4.19785 0.859911 4.13299 0.835106L4.38305 0.181293ZM4.30877 0.169094L4.28087 -0.53035C4.16069 -0.525556 4.04284 -0.496375 3.93443 -0.444687L4.23568 0.187172L4.53694 0.81903C4.47433 0.848882 4.4062 0.865764 4.33667 0.868538L4.30877 0.169094ZM4.23568 0.187172L3.93443 -0.444689L3.79984 -0.380521L4.10109 0.25134L4.40234 0.8832L4.53693 0.819032L4.23568 0.187172ZM4.10109 0.25134L3.79984 -0.380522C3.69145 -0.328843 3.59483 -0.255786 3.51568 -0.165942L4.04092 0.296793L4.56616 0.759529C4.52062 0.811223 4.46494 0.853358 4.40234 0.883201L4.10109 0.25134ZM4.04092 0.296793L3.51568 -0.165942C3.43654 -0.0761054 3.37647 0.0286732 3.33888 0.142012L4.0033 0.362338L4.66773 0.582664C4.64617 0.647654 4.6117 0.707842 4.56616 0.759529L4.04092 0.296793ZM4.0033 0.362338L3.33888 0.142012C3.3013 0.255346 3.28692 0.375052 3.29656 0.493984L3.99427 0.437465L4.69199 0.380947C4.69751 0.449081 4.68928 0.517678 4.66773 0.582664L4.0033 0.362338ZM3.99427 0.437465L3.29656 0.493984C3.30619 0.612915 3.33965 0.728804 3.39507 0.834696L4.01528 0.510134L4.63549 0.185572C4.6673 0.246361 4.68647 0.312814 4.69199 0.380947L3.99427 0.437465ZM4.01528 0.510134L3.39507 0.834694L4.22824 2.42683L4.84845 2.10227L5.46866 1.77771L4.63549 0.185574L4.01528 0.510134ZM4.84845 2.10227L4.22824 2.42683C4.33428 2.62947 4.51473 2.78413 4.73283 2.85725L4.95535 2.19356L5.17786 1.52987C5.30394 1.57214 5.40779 1.66139 5.46866 1.77771L4.84845 2.10227ZM4.95535 2.19356L4.73283 2.85725C4.95104 2.93041 5.18898 2.91588 5.39657 2.81691L5.09534 2.18504L4.79411 1.55317C4.91405 1.49599 5.05167 1.48756 5.17786 1.52987L4.95535 2.19356Z" fill="#808080" mask="url(#path-5-inside-1_678_13795)"/>
<mask id="path-7-inside-2_678_13795" fill="white">
<path d="M5.97121 2.02482C6.00293 2.02255 6.03255 2.00805 6.05387 1.98434C6.0752 1.96063 6.0866 1.92955 6.08567 1.89759L6.05116 0.718439C6.05067 0.701737 6.04683 0.685307 6.03986 0.670136C6.0329 0.654965 6.02295 0.641367 6.01063 0.63016C5.9983 0.618952 5.98385 0.610366 5.96814 0.604918C5.95243 0.59947 5.93579 0.597272 5.91921 0.598456L5.82177 0.605437C5.8052 0.606623 5.78904 0.611165 5.77426 0.618791C5.75948 0.626416 5.74638 0.636968 5.73576 0.649811C5.72514 0.662654 5.71721 0.677524 5.71245 0.693527C5.70769 0.70953 5.70619 0.726335 5.70805 0.742934L5.84 1.91511C5.84356 1.94689 5.85921 1.97605 5.88367 1.9965C5.90812 2.01694 5.93949 2.02709 5.97121 2.02482Z"/>
</mask>
<path d="M6.08567 1.89759L6.78538 1.87735L6.78537 1.87711L6.08567 1.89759ZM6.05116 0.718439L6.75086 0.697962L6.75086 0.697934L6.05116 0.718439ZM5.91921 0.598456L5.86931 -0.0997632L5.86919 -0.099754L5.91921 0.598456ZM5.82177 0.605437L5.87175 1.30365L5.8718 1.30365L5.82177 0.605437ZM5.70805 0.742934L5.01241 0.820938L5.01244 0.821234L5.70805 0.742934ZM5.84 1.91511L6.53563 1.83701L6.5356 1.83681L5.84 1.91511ZM5.97121 2.02482L6.02123 2.72304C6.23421 2.70778 6.43224 2.6104 6.57429 2.45249L6.05387 1.98434L5.53346 1.51618C5.63285 1.40569 5.77165 1.33733 5.9212 1.32661L5.97121 2.02482ZM6.05387 1.98434L6.57429 2.45249C6.71624 2.29469 6.79149 2.0886 6.78538 1.87735L6.08567 1.89759L5.38596 1.91783C5.3817 1.77049 5.43417 1.62656 5.53346 1.51618L6.05387 1.98434ZM6.08567 1.89759L6.78537 1.87711L6.75086 0.697962L6.05116 0.718439L5.35146 0.738916L5.38597 1.91807L6.08567 1.89759ZM6.05116 0.718439L6.75086 0.697934C6.74762 0.587437 6.7222 0.478635 6.67601 0.378039L6.03986 0.670136L5.40372 0.962233C5.37146 0.891978 5.35372 0.816037 5.35146 0.738944L6.05116 0.718439ZM6.03986 0.670136L6.67601 0.378039C6.62982 0.277436 6.56374 0.186983 6.48155 0.112249L6.01063 0.63016L5.5397 1.14807C5.48217 1.09575 5.43598 1.03249 5.40372 0.962233L6.03986 0.670136ZM6.01063 0.63016L6.48155 0.112249C6.39935 0.0375087 6.30276 -0.0199371 6.19749 -0.0564423L5.96814 0.604918L5.73879 1.26628C5.66494 1.24067 5.59725 1.20039 5.5397 1.14807L6.01063 0.63016ZM5.96814 0.604918L6.19749 -0.0564423C6.09221 -0.092952 5.98057 -0.107713 5.86931 -0.0997631L5.91921 0.598456L5.9691 1.29668C5.891 1.30226 5.81265 1.29189 5.73879 1.26628L5.96814 0.604918ZM5.91921 0.598456L5.86919 -0.099754L5.77175 -0.0927734L5.82177 0.605437L5.8718 1.30365L5.96923 1.29667L5.91921 0.598456ZM5.82177 0.605437L5.7718 -0.0927767C5.66057 -0.0848154 5.55224 -0.0543325 5.45332 -0.00329918L5.77426 0.618791L6.0952 1.24088C6.02584 1.27666 5.94983 1.29806 5.87175 1.30365L5.82177 0.605437ZM5.77426 0.618791L5.45332 -0.00329918C5.35441 0.0477305 5.26705 0.118199 5.19635 0.203674L5.73576 0.649811L6.27517 1.09595C6.22572 1.15574 6.16455 1.2051 6.0952 1.24088L5.77426 0.618791ZM5.73576 0.649811L5.19635 0.203674C5.12566 0.289145 5.07306 0.38788 5.04152 0.493878L5.71245 0.693527L6.38337 0.893175C6.36135 0.967168 6.32462 1.03616 6.27517 1.09595L5.73576 0.649811ZM5.71245 0.693527L5.04152 0.493878C5.00998 0.599869 5.00009 0.711098 5.01241 0.820938L5.70805 0.742934L6.40369 0.66493C6.41229 0.741573 6.40539 0.819191 6.38337 0.893175L5.71245 0.693527ZM5.70805 0.742934L5.01244 0.821234L5.14439 1.99341L5.84 1.91511L6.5356 1.83681L6.40366 0.664634L5.70805 0.742934ZM5.84 1.91511L5.14437 1.99321C5.16796 2.20337 5.27152 2.39712 5.43466 2.53352L5.88367 1.9965L6.33267 1.45947C6.4469 1.55498 6.51917 1.69041 6.53563 1.83701L5.84 1.91511ZM5.88367 1.9965L5.43466 2.53352C5.59792 2.67002 5.80807 2.73828 6.02116 2.72304L5.97121 2.02482L5.92127 1.32661C6.07091 1.3159 6.21832 1.36386 6.33267 1.45947L5.88367 1.9965Z" fill="#808080" mask="url(#path-7-inside-2_678_13795)"/>
<mask id="path-9-inside-3_678_13795" fill="white">
<path d="M6.64713 2.46059C6.73437 2.51131 6.85684 2.46477 6.92477 2.35508L8.13089 0.407426C8.20294 0.291074 8.18587 0.149264 8.09334 0.0954745L7.96436 0.0205099C7.87184 -0.0332895 7.74108 0.0225737 7.67674 0.143403L6.59958 2.16601C6.53892 2.27993 6.55989 2.40987 6.64713 2.46059Z"/>
</mask>
<path d="M6.64713 2.46059L6.29529 3.06574L6.29534 3.06577L6.64713 2.46059ZM6.92477 2.35508L6.32964 1.98654L6.32963 1.98655L6.92477 2.35508ZM8.13089 0.407426L8.72601 0.775969L8.72602 0.775954L8.13089 0.407426ZM8.09334 0.0954745L8.44515 -0.509696L8.4451 -0.509722L8.09334 0.0954745ZM7.96436 0.0205099L7.61251 0.625653L7.6126 0.625706L7.96436 0.0205099ZM7.67674 0.143403L8.29459 0.472443L8.2946 0.472412L7.67674 0.143403ZM6.59958 2.16601L5.98174 1.83697L5.98172 1.837L6.59958 2.16601ZM6.64713 2.46059L6.29534 3.06577C6.83498 3.37946 7.33825 3.01695 7.5199 2.7236L6.92477 2.35508L6.32963 1.98655C6.36939 1.92234 6.43845 1.85396 6.54452 1.81365C6.6524 1.77265 6.82645 1.75515 6.99893 1.85541L6.64713 2.46059ZM6.92477 2.35508L7.51989 2.72362L8.72601 0.775969L8.13089 0.407426L7.53576 0.038882L6.32964 1.98654L6.92477 2.35508ZM8.13089 0.407426L8.72602 0.775954C8.83986 0.59211 8.8959 0.369347 8.86881 0.144335C8.84166 -0.0812167 8.72039 -0.349684 8.44515 -0.509696L8.09334 0.0954745L7.74153 0.700645C7.55881 0.594423 7.49234 0.423755 7.47884 0.311644C7.46542 0.200072 7.49396 0.10639 7.53575 0.0388966L8.13089 0.407426ZM8.09334 0.0954745L8.4451 -0.509722L8.31613 -0.584686L7.96436 0.0205099L7.6126 0.625706L7.74157 0.700671L8.09334 0.0954745ZM7.96436 0.0205099L8.31622 -0.584633C8.04028 -0.745074 7.74577 -0.717311 7.53495 -0.627236C7.32521 -0.53762 7.16048 -0.376401 7.05888 -0.185606L7.67674 0.143403L8.2946 0.472412C8.25735 0.542378 8.19016 0.615251 8.08501 0.660177C7.97879 0.705563 7.79592 0.732294 7.61251 0.625653L7.96436 0.0205099ZM7.67674 0.143403L7.0589 -0.185636L5.98174 1.83697L6.59958 2.16601L7.21743 2.49505L8.29459 0.472443L7.67674 0.143403ZM6.59958 2.16601L5.98172 1.837C5.81982 2.14103 5.75941 2.75418 6.29529 3.06574L6.64713 2.46059L6.99898 1.85544C7.17086 1.95538 7.24096 2.11399 7.25895 2.22545C7.27672 2.33556 7.25289 2.42845 7.21744 2.49503L6.59958 2.16601Z" fill="#808080" mask="url(#path-9-inside-3_678_13795)"/>
</svg>
