<svg width="21" height="21" viewBox="0 0 21 21" fill="none" xmlns="http://www.w3.org/2000/svg">
<path d="M1.75 9.1875C1.75 8.51306 1.76178 7.85469 1.7842 7.21901C1.85747 5.14223 1.8941 4.10383 2.73881 3.25277C3.58352 2.40171 4.65124 2.35603 6.78667 2.26467C7.95827 2.21454 9.20579 2.1875 10.5 2.1875C11.7942 2.1875 13.0417 2.21454 14.2133 2.26467C16.3488 2.35603 17.4165 2.40171 18.2612 3.25277C19.1059 4.10383 19.1425 5.14223 19.2158 7.21901C19.2382 7.85469 19.25 8.51306 19.25 9.1875C19.25 9.86195 19.2382 10.5203 19.2158 11.156C19.1425 13.2328 19.1059 14.2712 18.2612 15.1223C17.4165 15.9733 16.3488 16.019 14.2132 16.1103C13.5711 16.1378 12.9061 16.1584 12.2231 16.1713C11.5747 16.1836 11.2504 16.1898 10.9655 16.2983C10.6806 16.4068 10.4409 16.6123 9.96144 17.0234L8.0544 18.6587C7.93864 18.7579 7.79117 18.8125 7.63867 18.8125C7.28594 18.8125 7 18.5265 7 18.1738V16.1192C6.92862 16.1163 6.85751 16.1134 6.78667 16.1103C4.65123 16.019 3.58352 15.9733 2.73881 15.1222C1.8941 14.2712 1.85747 13.2328 1.7842 11.156C1.76178 10.5203 1.75 9.86195 1.75 9.1875Z" stroke="#717171" stroke-width="1.5" stroke-linecap="round" stroke-linejoin="round"/>
<path d="M10.4922 13.125H10.5001" stroke="#717171" stroke-width="1.8" stroke-linecap="round" stroke-linejoin="round"/>
<path d="M8.3125 7.4375C8.3125 6.22938 9.29189 5.25 10.5 5.25C11.7081 5.25 12.6875 6.22938 12.6875 7.4375C12.6875 8.34338 12.1369 9.12065 11.352 9.45289C10.907 9.64127 10.5 10.0167 10.5 10.5" stroke="#717171" stroke-width="1.5" stroke-linecap="round" stroke-linejoin="round"/>
</svg>
