<svg width="24" height="24" viewBox="0 0 24 24" fill="none" xmlns="http://www.w3.org/2000/svg">
<path d="M17.9583 4.00049H6.875C6.24511 4.00049 5.64102 4.25071 5.19562 4.69611C4.75022 5.14151 4.5 5.7456 4.5 6.37549V7.30174C4.49989 7.62865 4.56727 7.95207 4.69792 8.25174V8.29924C4.80976 8.55334 4.96819 8.78426 5.165 8.98007L10.0417 13.8251V19.0422C10.0414 19.1767 10.0754 19.3091 10.1405 19.4268C10.2056 19.5446 10.2997 19.6438 10.4137 19.7151C10.5397 19.7932 10.6851 19.8343 10.8333 19.8338C10.9573 19.8331 11.0793 19.8033 11.1896 19.7467L14.3562 18.1634C14.4868 18.0976 14.5966 17.997 14.6735 17.8726C14.7503 17.7482 14.7912 17.605 14.7917 17.4588V13.8251L19.6367 8.98007C19.8335 8.78426 19.9919 8.55334 20.1037 8.29924V8.25174C20.2453 7.95441 20.3235 7.6309 20.3333 7.30174V6.37549C20.3333 5.7456 20.0831 5.14151 19.6377 4.69611C19.1923 4.25071 18.5882 4.00049 17.9583 4.00049ZM13.4379 12.9384C13.3645 13.0124 13.3065 13.1001 13.2671 13.1966C13.2277 13.293 13.2077 13.3963 13.2083 13.5005V16.968L11.625 17.7597V13.5005C11.6256 13.3963 11.6056 13.293 11.5662 13.1966C11.5268 13.1001 11.4688 13.0124 11.3954 12.9384L7.19958 8.75049H17.6337L13.4379 12.9384ZM18.75 7.16716H6.08333V6.37549C6.08333 6.16553 6.16674 5.96416 6.31521 5.8157C6.46367 5.66723 6.66504 5.58382 6.875 5.58382H17.9583C18.1683 5.58382 18.3697 5.66723 18.5181 5.8157C18.6666 5.96416 18.75 6.16553 18.75 6.37549V7.16716Z" fill="#3E3E40"/>
</svg>
