<svg width="24" height="24" viewBox="0 0 24 24" fill="none" xmlns="http://www.w3.org/2000/svg">
<path d="M7.47957 13.8129L7.24998 14.0504V8.04167C7.24998 7.8317 7.16658 7.63034 7.01811 7.48187C6.86964 7.33341 6.66828 7.25 6.45832 7.25C6.24835 7.25 6.04699 7.33341 5.89852 7.48187C5.75006 7.63034 5.66665 7.8317 5.66665 8.04167V14.0504L5.43707 13.8129C5.28799 13.6638 5.08581 13.5801 4.87498 13.5801C4.66416 13.5801 4.46197 13.6638 4.3129 13.8129C4.16383 13.962 4.08008 14.1642 4.08008 14.375C4.08008 14.5858 4.16383 14.788 4.3129 14.9371L5.89623 16.5204C5.97152 16.5925 6.06031 16.649 6.15748 16.6867C6.25225 16.7285 6.35471 16.7502 6.45832 16.7502C6.56192 16.7502 6.66439 16.7285 6.75915 16.6867C6.85633 16.649 6.94511 16.5925 7.0204 16.5204L8.60373 14.9371C8.67755 14.8633 8.7361 14.7756 8.77605 14.6792C8.816 14.5828 8.83656 14.4794 8.83656 14.375C8.83656 14.2706 8.816 14.1672 8.77605 14.0708C8.7361 13.9744 8.67755 13.8867 8.60373 13.8129C8.52992 13.7391 8.44229 13.6806 8.34585 13.6406C8.24941 13.6007 8.14604 13.5801 8.04165 13.5801C7.93726 13.5801 7.8339 13.6007 7.73745 13.6406C7.64101 13.6806 7.55338 13.7391 7.47957 13.8129ZM11.2083 8.83333H19.125C19.3349 8.83333 19.5363 8.74993 19.6848 8.60146C19.8332 8.45299 19.9167 8.25163 19.9167 8.04167C19.9167 7.8317 19.8332 7.63034 19.6848 7.48187C19.5363 7.33341 19.3349 7.25 19.125 7.25H11.2083C10.9984 7.25 10.797 7.33341 10.6485 7.48187C10.5001 7.63034 10.4167 7.8317 10.4167 8.04167C10.4167 8.25163 10.5001 8.45299 10.6485 8.60146C10.797 8.74993 10.9984 8.83333 11.2083 8.83333ZM19.125 11.2083H11.2083C10.9984 11.2083 10.797 11.2917 10.6485 11.4402C10.5001 11.5887 10.4167 11.79 10.4167 12C10.4167 12.21 10.5001 12.4113 10.6485 12.5598C10.797 12.7083 10.9984 12.7917 11.2083 12.7917H19.125C19.3349 12.7917 19.5363 12.7083 19.6848 12.5598C19.8332 12.4113 19.9167 12.21 19.9167 12C19.9167 11.79 19.8332 11.5887 19.6848 11.4402C19.5363 11.2917 19.3349 11.2083 19.125 11.2083ZM19.125 15.1667H11.2083C10.9984 15.1667 10.797 15.2501 10.6485 15.3985C10.5001 15.547 10.4167 15.7484 10.4167 15.9583C10.4167 16.1683 10.5001 16.3697 10.6485 16.5181C10.797 16.6666 10.9984 16.75 11.2083 16.75H19.125C19.3349 16.75 19.5363 16.6666 19.6848 16.5181C19.8332 16.3697 19.9167 16.1683 19.9167 15.9583C19.9167 15.7484 19.8332 15.547 19.6848 15.3985C19.5363 15.2501 19.3349 15.1667 19.125 15.1667Z" fill="#3E3E40"/>
</svg>
