<svg width="18" height="21" viewBox="0 0 18 21" fill="none" xmlns="http://www.w3.org/2000/svg">
<path d="M2.49815 9.99165C2.43056 11.3876 2.50834 12.8736 1.35371 13.8086C1.08825 14.0232 0.872835 14.3017 0.724625 14.622C0.576414 14.9423 0.499498 15.2956 0.500002 15.6536C0.500002 16.6506 1.22408 17.5006 2.16667 17.5006H15.5C16.4426 17.5006 17.1667 16.6506 17.1667 15.6536C17.1667 14.9276 16.85 14.2436 16.313 13.8086C15.1583 12.8736 15.2361 11.3876 15.1685 9.99165C15.0852 8.23773 14.3814 6.58535 13.2024 5.37575C12.0235 4.16614 10.4595 3.4917 8.83333 3.4917C7.2072 3.4917 5.64316 4.16614 4.46422 5.37575C3.28528 6.58535 2.58147 8.23773 2.49815 9.99165Z" stroke="#3E3E40" stroke-linecap="round" stroke-linejoin="round"/>
<path d="M11.6149 17.5C11.6149 18.2956 11.3222 19.0587 10.8013 19.6213C10.2804 20.1839 9.57382 20.5 8.8371 20.5C8.10039 20.5 7.39385 20.1839 6.87292 19.6213C6.35198 19.0587 6.05933 18.2956 6.05933 17.5M7.44821 1.625C7.44821 2.453 8.07044 3.5 8.8371 3.5C9.60377 3.5 10.226 2.453 10.226 1.625C10.226 0.797 9.60377 0.5 8.8371 0.5C8.07044 0.5 7.44821 0.797 7.44821 1.625Z" stroke="#3E3E40" stroke-linecap="round" stroke-linejoin="round"/>
</svg>
