<svg width="17" height="20" viewBox="0 0 17 20" fill="none" xmlns="http://www.w3.org/2000/svg">
<path d="M10.1387 17.7969C10.3773 17.4967 10.8118 17.4489 11.1084 17.6904C11.4048 17.932 11.4514 18.3717 11.2129 18.6719C11.0366 18.8936 10.833 19.0922 10.6172 19.2549C9.88956 19.8258 8.96363 20.085 8.04492 19.9756C7.12559 19.866 6.28718 19.3961 5.71484 18.6689C5.47765 18.3676 5.5265 17.9286 5.82422 17.6885C6.12193 17.4484 6.55579 17.4985 6.79297 17.7998C7.13812 18.2381 7.64662 18.5231 8.20605 18.5898C8.76643 18.6566 9.33047 18.4987 9.78223 18.1445C9.91541 18.044 10.0353 17.9269 10.1387 17.7969ZM8.53613 0C11.9035 8.30231e-06 14.9938 2.44304 15.3037 5.68555C15.3215 5.89157 15.3287 6.07465 15.3311 6.33203V7.00488C15.3315 7.1271 15.3332 7.22523 15.3359 7.31348L15.3447 7.50977L15.3896 7.69727C15.5303 8.21819 15.7777 8.70511 16.1162 9.12793L16.2666 9.30566L16.3291 9.38477C16.7352 9.99171 16.9668 10.6984 17 11.459L16.999 11.8623C16.9706 12.7631 16.6402 13.6334 16.0342 14.3584C15.2315 15.2103 14.1433 15.7393 12.9873 15.8457C10.002 16.1699 6.98972 16.17 4.0127 15.8467C2.8488 15.7347 1.7645 15.2068 0.926758 14.3223C0.308947 13.5691 -0.0195125 12.6205 0.000976562 11.6621L0.00195312 11.4238C0.0377042 10.6953 0.267684 9.98943 0.668945 9.37988L0.736328 9.29395C1.20504 8.78009 1.526 8.15065 1.66504 7.47266L1.64941 7.53418L1.65234 7L1.66406 6.4043C1.67286 6.14944 1.68704 5.91218 1.70703 5.68066C2.00689 2.44442 5.09581 0 8.46484 0H8.53613ZM8.46484 1.39551C5.76663 1.39551 3.30854 3.34081 3.08008 5.80664C3.06839 5.94214 3.05904 6.08237 3.05176 6.22949L3.03516 6.69531L3.02832 7.61523L3.01465 7.75684C2.82467 8.68313 2.38699 9.54083 1.74902 10.2402L1.79883 10.1836L1.70996 10.3291C1.54497 10.6265 1.43855 10.9499 1.39648 11.2686L1.37891 11.459V11.6777C1.36548 12.3144 1.58138 12.9352 1.9541 13.3926C2.52915 13.9979 3.30664 14.3766 4.15137 14.458C7.03897 14.7716 9.95291 14.7717 12.8516 14.457C13.6872 14.38 14.465 14.002 15.0088 13.4268C15.4203 12.9331 15.637 12.3093 15.6211 11.6533L15.6221 11.4902C15.6011 11.0187 15.4512 10.5611 15.1875 10.167L15.2021 10.1924L15.0645 10.0312C14.5891 9.44455 14.2441 8.76364 14.0518 8.03418L13.9863 7.75781L13.9736 7.66504C13.9639 7.53001 13.9581 7.40992 13.9551 7.26562L13.9531 6.36035C13.9513 6.13047 13.9446 5.97569 13.9307 5.81348C13.6943 3.34097 11.2336 1.39552 8.53613 1.39551H8.46484Z" fill="#3D5E83"/>
</svg>
