<svg width="28" height="28" viewBox="0 0 28 28" fill="none" xmlns="http://www.w3.org/2000/svg">
<path d="M13.9998 10.0002V14.0002M13.9998 18.0002H14.0098M12.2898 4.8602L3.81978 19.0002C3.64514 19.3026 3.55274 19.6455 3.55177 19.9947C3.55079 20.3439 3.64127 20.6873 3.8142 20.9907C3.98714 21.2941 4.2365 21.547 4.53748 21.7241C4.83847 21.9012 5.18058 21.9964 5.52978 22.0002H22.4698C22.819 21.9964 23.1611 21.9012 23.4621 21.7241C23.7631 21.547 24.0124 21.2941 24.1854 20.9907C24.3583 20.6873 24.4488 20.3439 24.4478 19.9947C24.4468 19.6455 24.3544 19.3026 24.1798 19.0002L15.7098 4.8602C15.5315 4.56631 15.2805 4.32332 14.981 4.15469C14.6814 3.98605 14.3435 3.89746 13.9998 3.89746C13.656 3.89746 13.3181 3.98605 13.0186 4.15469C12.7191 4.32332 12.468 4.56631 12.2898 4.8602Z" stroke="#3E3E40" stroke-width="2" stroke-linecap="round" stroke-linejoin="round"/>
</svg>
