<svg width="19" height="20" viewBox="0 0 19 20" fill="none" xmlns="http://www.w3.org/2000/svg">
<path d="M10.1162 0C10.825 -0.000256275 11.5039 0.280443 11.998 0.77832C12.4923 1.27642 12.7598 1.95015 12.7383 2.57812L12.7471 2.72559C12.7644 2.87093 12.8123 3.01132 12.8906 3.14062C13.0433 3.39575 13.2938 3.58095 13.5859 3.65527C13.878 3.7295 14.1886 3.68699 14.4824 3.51855L14.6455 3.43555C15.8755 2.86902 17.351 3.3194 18.0332 4.47949L18.6465 5.52148C18.6626 5.54891 18.6772 5.57738 18.6895 5.60645L18.7461 5.71875C19.2943 6.86542 18.904 8.22889 17.8623 8.92188L17.6055 9.08105C17.4711 9.17287 17.3587 9.29245 17.2744 9.43652C17.1221 9.69261 17.0803 9.9978 17.1582 10.2842C17.2362 10.5706 17.4276 10.8151 17.7178 10.9795L17.8848 11.084C18.389 11.4296 18.7532 11.9397 18.9121 12.5234C19.0912 13.182 18.9947 13.8835 18.6396 14.4805L17.9805 15.5566L17.8809 15.709C17.1059 16.8007 15.6014 17.1344 14.4531 16.4854L14.3164 16.416C14.1745 16.3539 14.0212 16.3202 13.8818 16.3164C13.5785 16.315 13.2867 16.4324 13.0723 16.6426C12.858 16.8527 12.7385 17.138 12.7393 17.4697L12.7314 17.6416C12.6203 18.9704 11.4842 20 10.1162 20H8.88086C7.43217 19.9999 6.25746 18.8493 6.25879 17.4756L6.25098 17.3281C6.23372 17.1827 6.18488 17.0414 6.10254 16.9053C5.95317 16.6497 5.70541 16.4629 5.41504 16.3867C5.12462 16.3107 4.81512 16.3518 4.51562 16.5215L4.33789 16.6084C3.77498 16.8564 3.1399 16.9019 2.54492 16.7363C1.87363 16.5494 1.3059 16.1082 0.974609 15.5225L0.336914 14.4443L0.251953 14.2842C-0.328282 13.0839 0.126684 11.641 1.28125 10.9873L1.38672 10.9229C1.69507 10.7137 1.87988 10.3687 1.87988 10C1.87988 9.59896 1.6613 9.22859 1.2793 9.01172L1.12402 8.91406C0.0098027 8.15468 -0.329984 6.68025 0.360352 5.50684L1.00879 4.46191C1.73089 3.23402 3.3317 2.81041 4.5625 3.50195L4.69531 3.57129C4.83114 3.63237 4.97903 3.66453 5.12109 3.66602C5.7474 3.66604 6.258 3.17359 6.26758 2.54199L6.27539 2.34766C6.32671 1.74706 6.59346 1.18298 7.02832 0.754883C7.51892 0.271924 8.18538 5.26143e-05 8.88086 0H10.1162ZM8.88086 1.44727C8.57857 1.44732 8.28846 1.56551 8.0752 1.77539C7.88613 1.96152 7.77031 2.20734 7.75 2.43652L7.7373 2.74121C7.63385 4.07058 6.4997 5.11443 5.11328 5.11426C4.7559 5.11062 4.40323 5.03279 4.04395 4.87012L3.85156 4.77051C3.30352 4.46312 2.60453 4.64826 2.28027 5.19922L1.63086 6.24414C1.33335 6.75001 1.48272 7.39439 1.94336 7.70898L2.2041 7.87109C2.92203 8.34676 3.35742 9.143 3.35742 10C3.35742 10.8446 2.93408 11.6343 2.20215 12.1299L2.04688 12.2256C1.53403 12.5163 1.33586 13.1443 1.57422 13.6387L1.62988 13.7451L2.25977 14.8086C2.4075 15.0696 2.65522 15.2621 2.94824 15.3438C3.20813 15.4161 3.48575 15.3963 3.70215 15.3018L3.81055 15.25C4.4107 14.9069 5.12662 14.8123 5.79785 14.9883C6.46882 15.1643 7.03986 15.5961 7.37891 16.1768C7.56128 16.4778 7.67698 16.813 7.72168 17.1982L7.74219 17.5518C7.80438 18.1141 8.29036 18.5526 8.88086 18.5527H10.1162C10.7135 18.5527 11.2102 18.102 11.2568 17.5508L11.2617 17.4424C11.2584 16.7588 11.5349 16.1016 12.0283 15.6182C12.5217 15.135 13.1915 14.8646 13.9053 14.8682C14.2556 14.8773 14.6007 14.955 14.9531 15.1104L15.2686 15.2686C15.7645 15.4818 16.3532 15.3254 16.6514 14.9062L16.7236 14.7959L17.3682 13.7432C17.5202 13.4873 17.5621 13.1826 17.4844 12.8965C17.4153 12.6426 17.2565 12.4206 17.0645 12.2881L16.792 12.1191C16.2716 11.7744 15.8934 11.2559 15.7305 10.6572C15.5512 9.99852 15.6476 9.29731 15.9951 8.71289C16.1854 8.38743 16.4462 8.10701 16.7871 7.875L16.9482 7.77637C17.4602 7.48292 17.6575 6.85458 17.4209 6.3584L17.3506 6.22559L17.3379 6.19727L16.7529 5.20215C16.4763 4.73182 15.9005 4.52888 15.4121 4.68945L15.3018 4.73242L15.1982 4.78418C14.6001 5.1294 13.8858 5.22758 13.2139 5.05664C12.542 4.88563 11.9673 4.45936 11.6182 3.87598C11.4358 3.57488 11.3201 3.23975 11.2754 2.85449L11.2627 2.60254C11.2716 2.29929 11.1543 2.00562 10.9385 1.78809C10.7226 1.57055 10.4262 1.44714 10.1162 1.44727H8.88086ZM9.50391 6.73145C11.3458 6.7318 12.8396 8.19542 12.8398 10C12.8396 11.8046 11.3458 13.2672 9.50391 13.2676C7.66175 13.2676 6.16818 11.8048 6.16797 10C6.16818 8.19521 7.66175 6.73145 9.50391 6.73145ZM9.50391 8.17871C8.47784 8.17871 7.64571 8.99477 7.64551 10C7.64571 11.0052 8.47784 11.8203 9.50391 11.8203C10.5297 11.82 11.3611 11.005 11.3613 10C11.3611 8.99499 10.5297 8.17906 9.50391 8.17871Z" fill="#717171"/>
</svg>
