<svg width="28" height="28" viewBox="0 0 28 28" fill="none" xmlns="http://www.w3.org/2000/svg">
<path d="M20.0013 16.0129C19.4107 16.0168 18.8282 16.1513 18.2959 16.4068C17.7635 16.6623 17.2944 17.0324 16.9223 17.4905L11.824 15.1443C12.0637 14.4113 12.0637 13.621 11.824 12.888L16.9223 10.5418C17.5237 11.2666 18.3622 11.7559 19.2897 11.9234C20.2172 12.0909 21.1741 11.9258 21.9916 11.4572C22.8091 10.9886 23.4345 10.2467 23.7576 9.36241C24.0807 8.47811 24.0806 7.50825 23.7574 6.624C23.4341 5.73976 22.8085 4.99797 21.991 4.52955C21.1734 4.06114 20.2164 3.8962 19.289 4.06386C18.3615 4.23152 17.5231 4.72099 16.9218 5.4459C16.3205 6.1708 15.995 7.08453 16.0026 8.02583C16.0056 8.26368 16.029 8.50083 16.0726 8.73468L10.7943 11.1608C10.2316 10.6112 9.51895 10.2398 8.74576 10.0929C7.97257 9.94606 7.17319 10.0304 6.44775 10.3352C5.72232 10.6401 5.1031 11.152 4.66768 11.8068C4.23226 12.4616 4 13.2301 4 14.0161C4 14.8022 4.23226 15.5707 4.66768 16.2255C5.1031 16.8803 5.72232 17.3922 6.44775 17.6971C7.17319 18.0019 7.97257 18.0862 8.74576 17.9394C9.51895 17.7925 10.2316 17.4211 10.7943 16.8715L16.0726 19.2976C16.029 19.5315 16.0056 19.7686 16.0026 20.0065C16.0026 20.7963 16.2371 21.5684 16.6765 22.2251C17.1159 22.8819 17.7404 23.3937 18.4711 23.696C19.2017 23.9983 20.0057 24.0774 20.7814 23.9233C21.5571 23.7692 22.2696 23.3888 22.8288 22.8303C23.388 22.2718 23.7689 21.5602 23.9232 20.7856C24.0775 20.0109 23.9983 19.2079 23.6956 18.4782C23.393 17.7485 22.8804 17.1248 22.2229 16.6859C21.5653 16.2471 20.7922 16.0129 20.0013 16.0129ZM20.0013 6.02906C20.3967 6.02906 20.7833 6.14617 21.1121 6.36558C21.4409 6.58498 21.6971 6.89684 21.8485 7.2617C21.9998 7.62656 22.0394 8.02805 21.9622 8.41538C21.8851 8.80272 21.6947 9.15851 21.4151 9.43776C21.1354 9.71701 20.7792 9.90719 20.3914 9.98423C20.0035 10.0613 19.6015 10.0217 19.2362 9.87061C18.8708 9.71948 18.5586 9.46354 18.3389 9.13518C18.1192 8.80681 18.0019 8.42075 18.0019 8.02583C18.0019 7.49625 18.2126 6.98837 18.5875 6.6139C18.9625 6.23943 19.471 6.02906 20.0013 6.02906ZM8.0052 16.0129C7.60976 16.0129 7.22321 15.8958 6.89442 15.6764C6.56563 15.457 6.30936 15.1451 6.15804 14.7803C6.00671 14.4154 5.96712 14.0139 6.04426 13.6266C6.12141 13.2393 6.31183 12.8835 6.59144 12.6042C6.87106 12.325 7.22731 12.1348 7.61514 12.0577C8.00298 11.9807 8.40498 12.0202 8.77031 12.1714C9.13565 12.3225 9.4479 12.5784 9.66759 12.9068C9.88729 13.2352 10.0045 13.6212 10.0045 14.0161C10.0045 14.5457 9.7939 15.0536 9.41895 15.4281C9.044 15.8025 8.53546 16.0129 8.0052 16.0129ZM20.0013 22.0032C19.6059 22.0032 19.2193 21.8861 18.8905 21.6667C18.5617 21.4473 18.3055 21.1355 18.1541 20.7706C18.0028 20.4057 17.9632 20.0042 18.0404 19.6169C18.1175 19.2296 18.3079 18.8738 18.5875 18.5945C18.8672 18.3153 19.2234 18.1251 19.6112 18.0481C19.9991 17.971 20.4011 18.0105 20.7664 18.1617C21.1318 18.3128 21.444 18.5687 21.6637 18.8971C21.8834 19.2255 22.0006 19.6115 22.0006 20.0065C22.0006 20.536 21.79 21.0439 21.4151 21.4184C21.0401 21.7929 20.5316 22.0032 20.0013 22.0032Z" fill="#3E3E40"/>
</svg>
