<svg width="21" height="22" viewBox="0 0 21 22" fill="none" xmlns="http://www.w3.org/2000/svg">
<path d="M9.22 20.75C5.228 20.75 3.231 20.75 1.99 19.578C0.75 18.407 0.75 16.521 0.75 12.75V8.75C0.75 4.979 0.75 3.093 1.99 1.922C3.231 0.75 5.228 0.75 9.22 0.75H10.28C14.273 0.75 16.269 0.75 17.51 1.922C18.75 3.093 18.75 4.979 18.75 8.75M9.25 20.75H10.75M5.75 5.75H13.75M5.75 10.75H10.75" stroke="#3D5E83" stroke-width="1.5" stroke-linecap="round" stroke-linejoin="round"/>
<path d="M15.25 17.34L14.348 20.493C14.3389 20.5288 14.3399 20.5663 14.3508 20.6016C14.3618 20.6368 14.3822 20.6683 14.41 20.6926C14.4377 20.717 14.4716 20.7331 14.508 20.7394C14.5444 20.7456 14.5817 20.7417 14.616 20.728L16.601 19.935C16.6966 19.8966 16.8034 19.8966 16.899 19.935L18.903 20.735C18.9365 20.7484 18.9731 20.7524 19.0087 20.7467C19.0443 20.741 19.0778 20.7258 19.1055 20.7026C19.1331 20.6794 19.154 20.6492 19.1659 20.6151C19.1778 20.581 19.1803 20.5444 19.173 20.509L18.409 17.241M19.75 14.745C19.7487 13.9502 19.432 13.1884 18.8696 12.6269C18.3071 12.0654 17.5448 11.75 16.75 11.75C15.093 11.75 13.75 13.091 13.75 14.745C13.7503 15.1387 13.8281 15.5284 13.979 15.892C14.1299 16.2556 14.351 16.5858 14.6296 16.864C14.9082 17.1421 15.2388 17.3626 15.6026 17.5129C15.9665 17.6632 16.3563 17.7404 16.75 17.74C18.407 17.74 19.75 16.4 19.75 14.745Z" stroke="#3D5E83" stroke-width="1.5" stroke-linecap="round" stroke-linejoin="round"/>
</svg>
