<svg width="16" height="16" viewBox="0 0 16 16" fill="none" xmlns="http://www.w3.org/2000/svg">
<rect x="0.205041" y="0.205041" width="15.4074" height="15.4074" rx="7.70368" stroke="#3C5D80" stroke-width="0.410082"/>
<path d="M10.319 4.67053C9.96091 4.26157 9.76353 3.73646 9.76358 3.19287H8.14444V9.69039C8.13221 10.0421 7.98385 10.3753 7.73065 10.6197C7.47745 10.8641 7.13921 11.0006 6.7873 11.0004C6.04323 11.0004 5.42492 10.3925 5.42492 9.63799C5.42492 8.73672 6.29475 8.06077 7.19077 8.33849V6.68267C5.383 6.44163 3.80054 7.84593 3.80054 9.63799C3.80054 11.3829 5.24676 12.6248 6.78206 12.6248C8.4274 12.6248 9.76358 11.2886 9.76358 9.63799V6.34207C10.4201 6.81359 11.2084 7.06657 12.0168 7.06518V5.44604C12.0168 5.44604 11.0316 5.4932 10.319 4.67053Z" fill="#3C5D80"/>
</svg>
