<svg width="160" height="160" viewBox="0 0 160 160" fill="none" xmlns="http://www.w3.org/2000/svg">
<path d="M100.794 16.6329L102.169 16.9204C113.75 19.3266 123.206 27.7516 126.419 39.0016C126.831 40.4516 127.137 41.9266 127.331 43.4204C128.731 54.1891 124.231 65.5829 115.794 72.6204C110.812 76.7454 104.456 79.6704 101.344 85.3079C97.2998 92.6329 100.256 101.602 103.294 109.345C106.325 117.089 109.262 126.07 105.181 133.383C102.65 137.958 97.7186 140.864 92.6561 142.352C79.2498 146.302 64.2373 141.302 54.2623 131.727C44.2936 122.152 38.9123 108.633 36.9811 94.9891C34.2623 75.8766 38.1436 55.4141 49.8248 39.8204C61.4998 24.2266 81.3998 14.2954 100.794 16.6329Z" fill="#F6F6F6"/>
<path d="M58.7439 68.125V98.5437C58.7439 105.712 58.7439 109.3 61.0626 111.525C66.2626 116.519 97.7564 117.45 103.925 111.525C106.244 109.3 106.244 105.712 106.244 98.5437V68.125" stroke="#004956" stroke-width="2.5"/>
<path d="M59.0626 81.3414L47.0438 69.6664C44.2938 67.0039 42.9126 65.6726 42.9126 64.0164C42.9126 62.3601 44.2876 61.0289 47.0438 58.3664L54.9626 50.6976C56.3376 49.3664 57.0188 48.7039 57.8376 48.2164C58.6563 47.7289 59.5751 47.4289 61.4188 46.8351L67.9313 44.7351C68.8813 44.4289 69.3626 44.2726 69.6813 44.4601C70.0063 44.6476 70.1063 45.1789 70.3126 46.2414C71.3813 51.8101 76.4313 56.0226 82.4938 56.0226C88.5563 56.0226 93.6001 51.8039 94.6751 46.2414C94.8813 45.1789 94.9813 44.6476 95.3063 44.4601C95.6313 44.2726 96.1063 44.4289 97.0563 44.7351L103.569 46.8351C105.412 47.4289 106.331 47.7289 107.15 48.2164C107.969 48.7039 108.656 49.3726 110.025 50.6976L117.944 58.3664C120.694 61.0289 122.075 62.3601 122.075 64.0164C122.075 65.6726 120.7 67.0039 117.944 69.6664L105.919 81.3476" stroke="#004956" stroke-width="2.5"/>
<path d="M140.744 101.789H126.363L123.963 104.189V118.57L126.363 120.97H140.744L143.144 118.57V104.189L140.744 101.789Z" fill="#BAF3E6" stroke="#004956" stroke-width="2.5"/>
<path d="M128.756 108.974C128.406 107.093 129.637 106.649 133.5 106.574M138.244 108.98C138.575 106.949 137.094 106.662 133.5 106.58V116.168M131.725 116.168H135.281" stroke="#004956" stroke-width="2.5" stroke-linecap="round" stroke-linejoin="round"/>
<path d="M144.337 99.3867H141.937C141.275 99.3867 140.737 99.9242 140.737 100.587V102.987C140.737 103.649 141.275 104.187 141.937 104.187H144.337C145 104.187 145.537 103.649 145.537 102.987V100.587C145.537 99.9242 145 99.3867 144.337 99.3867Z" fill="white" stroke="#004B58" stroke-width="2.5" stroke-linecap="round" stroke-linejoin="round"/>
<path d="M125.162 99.3867H122.762C122.1 99.3867 121.562 99.9242 121.562 100.587V102.987C121.562 103.649 122.1 104.187 122.762 104.187H125.162C125.825 104.187 126.362 103.649 126.362 102.987V100.587C126.362 99.9242 125.825 99.3867 125.162 99.3867Z" fill="white" stroke="#004B58" stroke-width="2.5" stroke-linecap="round" stroke-linejoin="round"/>
<path d="M144.337 118.57H141.937C141.275 118.57 140.737 119.108 140.737 119.77V122.17C140.737 122.833 141.275 123.37 141.937 123.37H144.337C145 123.37 145.537 122.833 145.537 122.17V119.77C145.537 119.108 145 118.57 144.337 118.57Z" fill="white" stroke="#004B58" stroke-width="2.5" stroke-linecap="round" stroke-linejoin="round"/>
<path d="M125.162 118.57H122.762C122.1 118.57 121.562 119.108 121.562 119.77V122.17C121.562 122.833 122.1 123.37 122.762 123.37H125.162C125.825 123.37 126.362 122.833 126.362 122.17V119.77C126.362 119.108 125.825 118.57 125.162 118.57Z" fill="white" stroke="#004B58" stroke-width="2.5" stroke-linecap="round" stroke-linejoin="round"/>
<path d="M134.769 31.9688H146.756" stroke="#004956" stroke-width="2.5" stroke-linecap="round" stroke-linejoin="round"/>
<path d="M134.769 39.1562H146.756" stroke="#004956" stroke-width="2.5" stroke-linecap="round" stroke-linejoin="round"/>
<path d="M134.769 46.3477H146.756" stroke="#004956" stroke-width="2.5" stroke-linecap="round" stroke-linejoin="round"/>
<path d="M125.175 33.639C125.175 33.639 126.375 34.4203 126.975 35.564C126.975 35.564 128.775 31.0703 131.169 29.5703" stroke="#004956" stroke-width="2.5" stroke-linecap="round" stroke-linejoin="round"/>
<path d="M125.175 46.8188C125.175 46.8188 126.375 47.6 126.975 48.7437C126.975 48.7437 128.775 44.25 131.169 42.75" stroke="#004956" stroke-width="2.5" stroke-linecap="round" stroke-linejoin="round"/>
<path d="M32.4249 80.1133V89.7008M37.2186 84.9071H27.6311" stroke="#004956" stroke-width="2.5" stroke-linecap="round" stroke-linejoin="round"/>
<path d="M13.25 84.9071C13.25 83.2321 13.25 82.3883 13.575 81.7508C13.8625 81.1883 14.3187 80.7258 14.8875 80.4383C15.5312 80.1133 16.3687 80.1133 18.0437 80.1133C19.7187 80.1133 20.5625 80.1133 21.2 80.4383C21.7625 80.7258 22.225 81.1821 22.5125 81.7508C22.8375 82.3946 22.8375 83.2321 22.8375 84.9071C22.8375 86.5821 22.8375 87.4258 22.5125 88.0633C22.225 88.6258 21.7687 89.0883 21.2 89.3758C20.5562 89.7008 19.7187 89.7008 18.0437 89.7008C16.3687 89.7008 15.525 89.7008 14.8875 89.3758C14.325 89.0883 13.8625 88.6321 13.575 88.0633C13.25 87.4196 13.25 86.5821 13.25 84.9071Z" stroke="#004956" stroke-width="2.5" stroke-linecap="round" stroke-linejoin="round"/>
<path d="M13.25 99.2859C13.25 97.6109 13.25 96.7672 13.575 96.1297C13.8625 95.5672 14.3187 95.1047 14.8875 94.8172C15.5312 94.4922 16.3687 94.4922 18.0437 94.4922C19.7187 94.4922 20.5625 94.4922 21.2 94.8172C21.7625 95.1047 22.225 95.5609 22.5125 96.1297C22.8375 96.7734 22.8375 97.6109 22.8375 99.2859C22.8375 100.961 22.8375 101.805 22.5125 102.442C22.225 103.005 21.7687 103.467 21.2 103.755C20.5562 104.08 19.7187 104.08 18.0437 104.08C16.3687 104.08 15.525 104.08 14.8875 103.755C14.325 103.467 13.8625 103.011 13.575 102.442C13.25 101.798 13.25 100.961 13.25 99.2859Z" stroke="#004956" stroke-width="2.5" stroke-linecap="round" stroke-linejoin="round"/>
<path d="M27.6311 99.2859C27.6311 97.6109 27.6311 96.7672 27.9561 96.1297C28.2436 95.5672 28.6999 95.1047 29.2686 94.8172C29.9124 94.4922 30.7499 94.4922 32.4249 94.4922C34.0999 94.4922 34.9436 94.4922 35.5811 94.8172C36.1436 95.1047 36.6061 95.5609 36.8936 96.1297C37.2186 96.7734 37.2186 97.6109 37.2186 99.2859C37.2186 100.961 37.2186 101.805 36.8936 102.442C36.6061 103.005 36.1499 103.467 35.5811 103.755C34.9374 104.08 34.0999 104.08 32.4249 104.08C30.7499 104.08 29.9061 104.08 29.2686 103.755C28.7061 103.467 28.2436 103.011 27.9561 102.442C27.6311 101.798 27.6311 100.961 27.6311 99.2859Z" stroke="#004956" stroke-width="2.5" stroke-linecap="round" stroke-linejoin="round"/>
</svg>
