<svg width="25" height="25" viewBox="0 0 25 25" fill="none" xmlns="http://www.w3.org/2000/svg">
<path d="M18.0909 13.6364V16.9091H16.4545V13.6364H18.0909ZM8.27273 13.6364V16.9091H7.45455C7.00455 16.9091 6.63636 16.5409 6.63636 16.0909V13.6364H8.27273ZM12.3636 3C8.29727 3 5 6.29727 5 10.3636V16.0909C5 17.4491 6.09636 18.5455 7.45455 18.5455H9.90909V12H6.63636V10.3636C6.63636 7.19727 9.19727 4.63636 12.3636 4.63636C15.53 4.63636 18.0909 7.19727 18.0909 10.3636V12H14.8182V18.5455H18.0909V19.3636H12.3636V21H17.2727C18.6309 21 19.7273 19.9036 19.7273 18.5455V10.3636C19.7273 6.29727 16.43 3 12.3636 3Z" fill="#3D5E83"/>
</svg>
