<svg width="256" height="237" viewBox="0 0 256 237" fill="none" xmlns="http://www.w3.org/2000/svg">
<path d="M173.93 162.484C174.046 162.484 174.153 162.519 174.245 162.577H231.078L231.182 162.588C231.415 162.636 231.591 162.842 231.591 163.09C231.591 163.338 231.415 163.544 231.182 163.592L231.078 163.603H219.571C209.527 171.403 206.961 179.938 206.879 186.511C206.838 189.823 207.427 192.651 208.027 194.649C208.327 195.648 208.63 196.439 208.855 196.977C208.968 197.245 209.062 197.452 209.127 197.589C209.153 197.644 209.174 197.689 209.19 197.722L216.446 205.059L216.081 205.419L215.717 205.78L208.462 198.443L208.327 198.376C208.189 198.309 207.982 198.211 207.712 198.094C207.172 197.859 206.378 197.544 205.376 197.23C203.371 196.602 200.537 195.978 197.226 195.991C190.683 196.018 182.214 198.534 174.528 208.587V219.396C174.528 219.73 174.26 220.001 173.93 220.001C173.599 220.001 173.331 219.73 173.331 219.396V163.09C173.331 162.756 173.599 162.484 173.93 162.484ZM194.861 186.999C193.174 186.913 190.861 186.97 188.354 187.531C183.425 188.635 177.735 191.693 174.528 199.548V206.929C182.2 197.469 190.609 194.993 197.221 194.966C200.662 194.952 203.603 195.6 205.684 196.252C206.01 196.354 206.315 196.459 206.599 196.56L197.419 187.275C197.413 187.274 197.407 187.274 197.4 187.272C197.278 187.251 197.096 187.22 196.86 187.187C196.389 187.12 195.704 187.042 194.861 186.999ZM216.446 205.059C216.645 205.26 216.644 205.585 216.442 205.784C216.241 205.983 215.916 205.981 215.717 205.78L216.446 205.059ZM187.405 178.458C186.356 178.35 184.916 178.322 183.346 178.642C180.297 179.263 176.709 181.199 174.528 186.555V197.093C177.992 190.379 183.4 187.59 188.13 186.53C190.751 185.943 193.161 185.886 194.914 185.975C195.409 186 195.852 186.038 196.234 186.078L188.955 178.716C188.881 178.698 188.776 178.674 188.643 178.646C188.352 178.587 187.929 178.512 187.405 178.458ZM209.639 163.603C201.748 166.976 198.792 172.697 197.792 177.587C197.289 180.05 197.282 182.307 197.401 183.948C197.461 184.768 197.553 185.433 197.629 185.891C197.639 185.951 197.65 186.008 197.659 186.061L197.98 186.385C198.027 186.417 198.066 186.459 198.099 186.504L207.336 195.846C207.241 195.566 207.142 195.266 207.046 194.944C206.423 192.87 205.811 189.937 205.854 186.498C205.936 179.859 208.462 171.385 217.93 163.603H209.639ZM197.363 163.809C192.194 166.012 190.289 169.516 189.658 172.485C189.33 174.031 189.344 175.446 189.442 176.476C189.491 176.989 189.561 177.405 189.617 177.689C189.643 177.82 189.667 177.923 189.685 177.995L196.453 184.84C196.426 184.587 196.4 184.314 196.379 184.022C196.254 182.314 196.26 179.96 196.787 177.382C197.753 172.658 200.469 167.199 207.261 163.603H197.867L197.363 163.809ZM174.528 184.174C176.873 179.949 180.21 178.234 183.142 177.637C184.839 177.291 186.388 177.322 187.511 177.438C187.58 177.445 187.648 177.453 187.714 177.461L174.528 164.126V184.174ZM188.439 176.736C188.434 176.683 188.427 176.629 188.422 176.573C188.317 175.47 188.3 173.946 188.655 172.272C189.281 169.326 191.056 165.956 195.425 163.603H175.451L188.439 176.736Z" fill="url(#paint0_linear_2121_9944)"/>
<path d="M127.701 233.402C191.049 233.402 242.402 182.049 242.402 118.701C242.402 55.3534 191.049 4 127.701 4C64.3534 4 13 55.3534 13 118.701C13 182.049 64.3534 233.402 127.701 233.402Z" fill="url(#paint1_linear_2121_9944)"/>
<rect x="22.3018" y="13.3018" width="210.396" height="210.396" rx="105.198" fill="#C1961F"/>
<rect x="22.3018" y="13.3018" width="210.396" height="210.396" rx="105.198" stroke="#EBEB84" stroke-width="8.60357"/>
<path d="M98.5605 124.756C98.5605 124.756 104.818 124.756 113.161 139.356C113.161 139.356 136.35 101.117 156.961 93.4707" stroke="white" stroke-width="6.25714" stroke-linecap="round" stroke-linejoin="round"/>
<path d="M254.994 69.9435C255.046 69.8498 255.077 69.7461 255.086 69.6392C255.095 69.5324 255.082 69.4249 255.046 69.3237C255.011 69.2225 254.956 69.13 254.883 69.0522C254.81 68.9744 254.721 68.9131 254.623 68.8723C251.762 67.7186 241.64 64.2942 236.108 71.1979C232.406 75.7353 227.175 78.7262 221.422 79.594C221.277 79.6137 221.142 79.6771 221.033 79.776C220.925 79.8749 220.848 80.0046 220.814 80.1482C220.78 80.2917 220.789 80.4424 220.841 80.5805C220.893 80.7185 220.985 80.8374 221.105 80.9217C225.994 84.4285 242.147 93.3648 254.994 69.9435Z" fill="url(#paint2_linear_2121_9944)"/>
<path d="M40.5812 118.36C40.622 118.285 40.6467 118.202 40.6536 118.116C40.6605 118.03 40.6495 117.944 40.6213 117.863C40.5932 117.782 40.5484 117.707 40.49 117.645C40.4316 117.582 40.3609 117.533 40.2824 117.5C37.9917 116.584 29.8521 113.837 25.4065 119.331C22.4401 122.971 18.2482 125.374 13.6362 126.079C13.5204 126.095 13.412 126.145 13.3253 126.224C13.2385 126.304 13.1774 126.407 13.15 126.522C13.1226 126.637 13.1301 126.758 13.1716 126.868C13.2132 126.979 13.2868 127.074 13.3827 127.141C17.285 129.998 30.2595 137.176 40.5812 118.36Z" fill="url(#paint3_linear_2121_9944)"/>
<path d="M232.723 107.974C232.689 107.912 232.668 107.842 232.662 107.77C232.656 107.699 232.665 107.627 232.689 107.559C232.713 107.491 232.752 107.43 232.801 107.378C232.851 107.327 232.91 107.286 232.977 107.26C234.896 106.482 241.696 104.184 245.408 108.817C247.896 111.865 251.411 113.874 255.277 114.457C255.379 114.466 255.476 114.508 255.554 114.577C255.632 114.645 255.686 114.737 255.709 114.838C255.732 114.94 255.723 115.046 255.683 115.142C255.642 115.238 255.573 115.319 255.485 115.372C252.208 117.744 241.352 123.741 232.723 107.974Z" fill="url(#paint4_linear_2121_9944)"/>
<path d="M0.379407 78.2598C0.323525 78.1551 0.28995 78.0397 0.280846 77.9212C0.271742 77.8026 0.287311 77.6833 0.32655 77.5712C0.365789 77.4591 0.427826 77.3565 0.508664 77.2701C0.589503 77.1836 0.687348 77.1153 0.795894 77.0695C3.96482 75.7968 15.1828 72.0062 21.3124 79.6423C25.4184 84.677 31.2256 87.9918 37.6097 88.9449C37.7694 88.9687 37.9183 89.0405 38.0372 89.1508C38.156 89.2612 38.2394 89.4051 38.2765 89.5639C38.3135 89.7227 38.3026 89.8892 38.2451 90.0416C38.1875 90.1941 38.0861 90.3256 37.9538 90.4191C32.5123 94.3012 14.6124 104.208 0.379407 78.2598Z" fill="url(#paint5_linear_2121_9944)"/>
<path d="M39.5111 48.558C39.1962 47.3233 40.3361 46.2108 41.5628 46.5555L49.843 48.8824C51.0697 49.2271 51.4632 50.7705 50.5513 51.6605L44.3961 57.6679C43.4842 58.5579 41.9508 58.127 41.636 56.8923L39.5111 48.558Z" fill="#BDDBFF"/>
<path d="M229.812 7.99867C230.301 5.97173 233.184 5.97173 233.674 7.99866L235.32 14.8206C235.495 15.5449 236.061 16.1105 236.785 16.2853L243.607 17.9321C245.634 18.4214 245.634 21.3045 243.607 21.7938L236.785 23.4406C236.061 23.6154 235.495 24.181 235.32 24.9053L233.674 31.7272C233.184 33.7542 230.301 33.7542 229.812 31.7272L228.165 24.9053C227.99 24.181 227.425 23.6154 226.7 23.4406L219.879 21.7938C217.852 21.3045 217.852 18.4214 219.879 17.9321L226.7 16.2853C227.425 16.1105 227.99 15.5449 228.165 14.8206L229.812 7.99867Z" fill="#BDDBFF"/>
<path d="M87.812 204.999C88.3013 202.972 91.1844 202.972 91.6737 204.999L93.3204 211.821C93.4953 212.545 94.0608 213.11 94.7852 213.285L101.607 214.932C103.634 215.421 103.634 218.304 101.607 218.794L94.7852 220.441C94.0608 220.615 93.4953 221.181 93.3204 221.905L91.6737 228.727C91.1844 230.754 88.3013 230.754 87.812 228.727L86.1652 221.905C85.9904 221.181 85.4248 220.615 84.7005 220.441L77.8786 218.794C75.8516 218.304 75.8516 215.421 77.8785 214.932L84.7005 213.285C85.4248 213.11 85.9904 212.545 86.1652 211.821L87.812 204.999Z" fill="#BDDBFF"/>
<path d="M56.6729 190.241C59.1867 190.241 61.2254 192.279 61.2256 194.793C61.2256 197.307 59.1868 199.346 56.6729 199.346C54.1591 199.345 52.1211 197.307 52.1211 194.793C52.1213 192.279 54.1592 190.241 56.6729 190.241Z" stroke="#BDDBFF" stroke-width="2.48287"/>
<circle cx="63.6732" cy="15.7934" r="4.55192" stroke="#99B5FC" stroke-width="2.48287"/>
<circle cx="244.673" cy="185.793" r="4.55192" stroke="#99B5FC" stroke-width="2.48287"/>
<defs>
<linearGradient id="paint0_linear_2121_9944" x1="161.11" y1="171.949" x2="255.492" y2="182.614" gradientUnits="userSpaceOnUse">
<stop offset="0.0844027" stop-color="#BDD7FF"/>
<stop offset="1" stop-color="#FFF6F5"/>
</linearGradient>
<linearGradient id="paint1_linear_2121_9944" x1="126.817" y1="-33.3495" x2="129.167" y2="369.463" gradientUnits="userSpaceOnUse">
<stop stop-color="white" stop-opacity="0"/>
<stop offset="1" stop-color="#9DB3FF"/>
</linearGradient>
<linearGradient id="paint2_linear_2121_9944" x1="263.432" y1="86.5005" x2="251.599" y2="59.3104" gradientUnits="userSpaceOnUse">
<stop stop-color="#99D4FF"/>
<stop offset="1" stop-color="#DAE2FF"/>
</linearGradient>
<linearGradient id="paint3_linear_2121_9944" x1="47.3514" y1="131.656" x2="37.8481" y2="109.829" gradientUnits="userSpaceOnUse">
<stop stop-color="#99D4FF"/>
<stop offset="1" stop-color="#DAE2FF"/>
</linearGradient>
<linearGradient id="paint4_linear_2121_9944" x1="261.332" y1="119.129" x2="253.358" y2="100.83" gradientUnits="userSpaceOnUse">
<stop stop-color="#99D4FF"/>
<stop offset="1" stop-color="#DAE2FF"/>
</linearGradient>
<linearGradient id="paint5_linear_2121_9944" x1="47.5478" y1="96.6001" x2="34.4479" y2="66.4742" gradientUnits="userSpaceOnUse">
<stop stop-color="#99D4FF"/>
<stop offset="1" stop-color="#DAE2FF"/>
</linearGradient>
</defs>
</svg>
