<svg width="16" height="16" viewBox="0 0 16 16" fill="none" xmlns="http://www.w3.org/2000/svg">
<g clip-path="url(#clip0_5082_9986)">
<path d="M12.5274 3.53362L12.1291 9.97386C12.0276 11.6191 11.9768 12.442 11.5638 13.0337C11.3598 13.3261 11.0973 13.5729 10.7929 13.7583C10.1781 14.1335 9.35384 14.1335 7.7054 14.1335C6.05438 14.1335 5.22888 14.1335 4.6128 13.7577C4.30822 13.5719 4.04568 13.3246 3.8419 13.0318C3.42946 12.4395 3.37935 11.6152 3.28042 9.96744L2.89112 3.53362M1.92749 3.53362H13.491M10.3149 3.53362L9.87613 2.62909C9.58511 2.02779 9.43928 1.72778 9.1881 1.5402C9.1323 1.49864 9.07322 1.46169 9.01143 1.4297C8.73327 1.28516 8.39921 1.28516 7.73174 1.28516C7.04692 1.28516 6.70451 1.28516 6.4212 1.43548C6.35858 1.46902 6.29884 1.5077 6.24261 1.55112C5.98886 1.74577 5.84688 2.05734 5.56293 2.67985L5.17363 3.53362M6.10321 10.6002V6.74571M9.3153 10.6002V6.74571" stroke="#D00416" stroke-width="0.963627" stroke-linecap="round" stroke-linejoin="round"/>
</g>
<defs>
<clipPath id="clip0_5082_9986">
<rect width="15.418" height="15.418" fill="white"/>
</clipPath>
</defs>
</svg>
