<svg width="15" height="16" viewBox="0 0 15 16" fill="none" xmlns="http://www.w3.org/2000/svg">
<path d="M4.10566 15.9688C3.49689 15.9724 2.91082 15.7379 2.47258 15.3154C2.03433 14.8928 1.77863 14.3157 1.76006 13.7072C1.50966 11.4296 1.09126 6.0456 1.08326 5.9912C1.07474 5.82827 1.12948 5.66834 1.23606 5.5448C1.28912 5.4866 1.35373 5.44011 1.42577 5.40829C1.49781 5.37647 1.5757 5.36002 1.65446 5.36H12.7513C12.8301 5.36109 12.9078 5.37826 12.9798 5.41045C13.0517 5.44264 13.1163 5.48917 13.1697 5.5472C13.2227 5.60794 13.263 5.67882 13.2878 5.75555C13.3127 5.83228 13.3218 5.91327 13.3145 5.9936C13.3145 6.048 12.8881 11.4408 12.6449 13.7096C12.6258 14.3275 12.3625 14.9127 11.9125 15.3367C11.4626 15.7607 10.8628 15.9889 10.2449 15.9712C9.21206 15.992 8.19925 16 7.20006 16C6.14486 16 5.10966 15.992 4.10566 15.9688ZM0.571256 4.0728C0.418043 4.06944 0.272289 4.006 0.165432 3.89615C0.0585754 3.7863 -0.000820472 3.63885 5.60105e-05 3.4856V3.1816C-0.00100185 3.10554 0.0129343 3.03001 0.0410686 2.95933C0.0692029 2.88866 0.110984 2.82421 0.164026 2.76968C0.217069 2.71516 0.280333 2.67161 0.350206 2.64154C0.420079 2.61146 0.495192 2.59544 0.571256 2.5944H2.90406C3.13719 2.59205 3.36257 2.51034 3.54304 2.36274C3.72352 2.21513 3.84831 2.01044 3.89686 1.7824L4.01846 1.2368C4.09788 0.889024 4.29185 0.578023 4.56925 0.353728C4.84664 0.129433 5.19136 0.00485701 5.54806 0L8.85126 0C9.20141 0.0046598 9.54023 0.124817 9.81509 0.34181C10.0899 0.558802 10.2855 0.860484 10.3713 1.2L10.5017 1.784C10.5498 2.01232 10.6744 2.21736 10.855 2.36517C11.0355 2.51299 11.2611 2.59471 11.4945 2.5968H13.8273C13.9033 2.59753 13.9784 2.61324 14.0484 2.64304C14.1183 2.67284 14.1817 2.71613 14.2349 2.77044C14.2881 2.82476 14.3301 2.88903 14.3584 2.95958C14.3867 3.03013 14.4009 3.10558 14.4001 3.1816V3.4856C14.4009 3.63871 14.3417 3.78604 14.235 3.89587C14.1283 4.0057 13.9827 4.06924 13.8297 4.0728H0.571256Z" fill="#5B87B9"/>
</svg>
