<svg width="165" height="153" viewBox="0 0 165 153" fill="none" xmlns="http://www.w3.org/2000/svg">
<path d="M148.904 104.703C149.187 104.703 149.417 104.933 149.417 105.216C149.417 105.499 149.187 105.728 148.904 105.729H141.544C135.149 110.715 133.525 116.151 133.473 120.328C133.446 122.442 133.823 124.248 134.206 125.524C134.397 126.162 134.591 126.666 134.734 127.008C134.806 127.179 134.866 127.309 134.906 127.396C134.917 127.417 134.926 127.436 134.934 127.452L139.594 132.165C139.792 132.366 139.791 132.691 139.59 132.89C139.389 133.089 139.063 133.087 138.864 132.886L134.208 128.178C134.191 128.169 134.17 128.158 134.146 128.146C134.059 128.104 133.927 128.042 133.756 127.968C133.412 127.819 132.906 127.618 132.267 127.418C130.986 127.017 129.177 126.617 127.063 126.626C122.86 126.643 117.39 128.27 112.433 134.853C112.429 134.858 112.424 134.861 112.42 134.866V141.545C112.42 141.761 112.246 141.936 112.033 141.936C111.82 141.935 111.648 141.76 111.647 141.545V134.891C111.483 134.712 111.463 134.436 111.614 134.235C111.625 134.221 111.637 134.207 111.647 134.192V129.177C111.52 129.037 111.472 128.833 111.546 128.645C111.579 128.561 111.614 128.479 111.647 128.397V120.797C111.52 120.658 111.473 120.455 111.545 120.268C111.578 120.182 111.613 120.097 111.647 120.014V105.218C111.648 105.079 111.72 104.957 111.828 104.888C111.924 104.772 112.069 104.703 112.224 104.703H148.904ZM125.528 120.824C124.452 120.77 122.976 120.805 121.379 121.163C118.202 121.875 114.527 123.859 112.501 129.019C112.481 129.069 112.452 129.113 112.42 129.153V133.216C117.368 127.21 122.781 125.618 127.059 125.601C129.236 125.592 131.106 125.991 132.453 126.402L127.102 120.991C127.027 120.978 126.926 120.961 126.802 120.943C126.502 120.901 126.066 120.851 125.528 120.824ZM120.708 115.312C120.044 115.243 119.134 115.226 118.145 115.428C116.192 115.825 113.875 117.08 112.502 120.637C112.482 120.688 112.453 120.733 112.42 120.773V126.764C114.687 122.598 118.134 120.839 121.154 120.162C122.865 119.779 124.438 119.742 125.58 119.8C125.707 119.806 125.83 119.815 125.946 119.823L121.635 115.463C121.595 115.454 121.546 115.441 121.488 115.43C121.306 115.392 121.039 115.346 120.708 115.312ZM135.118 105.729C130.11 107.879 128.242 111.507 127.607 114.609C127.287 116.178 127.281 117.616 127.357 118.663C127.396 119.186 127.454 119.609 127.502 119.899C127.505 119.915 127.507 119.93 127.51 119.945L127.694 120.132C127.715 120.15 127.734 120.169 127.751 120.189L133.187 125.686C132.795 124.343 132.42 122.484 132.447 120.315C132.5 116.073 134.085 110.696 139.92 105.729H135.118ZM127.524 105.729C124.019 107.115 122.767 109.402 122.359 111.32C122.152 112.295 122.162 113.189 122.224 113.84C122.255 114.164 122.299 114.426 122.334 114.604C122.345 114.658 122.355 114.704 122.363 114.741L126.337 118.76C126.336 118.753 126.336 118.745 126.336 118.738C126.255 117.624 126.258 116.088 126.603 114.404C127.205 111.458 128.85 108.074 132.844 105.729H127.524ZM112.42 118.453C113.95 115.879 116.066 114.804 117.939 114.423C118.882 114.231 119.755 114.216 120.447 114.262L112.42 106.143V118.453ZM121.173 113.537C121.137 112.862 121.163 112.019 121.356 111.106C121.741 109.295 122.784 107.249 125.23 105.729H113.451L121.173 113.537Z" fill="url(#paint0_linear_519_12813)"/>
<path d="M87.2926 149.772C128.162 149.772 161.294 116.64 161.294 75.7706C161.294 34.9009 128.162 1.76953 87.2926 1.76953C46.4229 1.76953 13.2915 34.9009 13.2915 75.7706C13.2915 116.64 46.4229 149.772 87.2926 149.772Z" fill="url(#paint1_linear_519_12813)"/>
<rect x="15.7354" y="10.1065" width="132.688" height="132.688" rx="66.3438" fill="#1FC16B"/>
<rect x="15.7354" y="10.1065" width="132.688" height="132.688" rx="66.3438" stroke="#84EBB4" stroke-width="8.60357"/>
<path d="M53.4014 84.2857C53.4014 84.2857 59.6585 84.2857 68.0014 98.8857C68.0014 98.8857 91.1903 60.6462 111.801 53" stroke="white" stroke-width="6.25714" stroke-linecap="round" stroke-linejoin="round"/>
<path d="M164.334 45.1256C164.367 45.0651 164.387 44.9982 164.393 44.9293C164.398 44.8604 164.39 44.791 164.367 44.7257C164.344 44.6605 164.308 44.6008 164.261 44.5506C164.214 44.5004 164.157 44.4608 164.094 44.4345C162.248 43.6902 155.718 41.4809 152.148 45.9349C149.76 48.8622 146.385 50.7919 142.674 51.3518C142.58 51.3645 142.493 51.4054 142.423 51.4692C142.353 51.533 142.304 51.6167 142.282 51.7093C142.259 51.8019 142.266 51.8991 142.299 51.9882C142.333 52.0773 142.392 52.154 142.469 52.2083C145.624 54.4708 156.045 60.2362 164.334 45.1256Z" fill="url(#paint2_linear_519_12813)"/>
<path d="M26.0015 76.3627C26.0279 76.314 26.0438 76.2602 26.0483 76.2049C26.0527 76.1496 26.0456 76.094 26.0275 76.0416C26.0093 75.9892 25.9804 75.9413 25.9427 75.901C25.9051 75.8606 25.8594 75.8288 25.8088 75.8074C24.3309 75.2167 19.0795 73.4445 16.2114 76.9888C14.2976 79.3373 11.5931 80.8878 8.61762 81.3424C8.54291 81.3526 8.47298 81.3853 8.41699 81.4363C8.361 81.4874 8.32158 81.5543 8.30389 81.6284C8.28621 81.7025 8.29108 81.7803 8.31788 81.8515C8.34468 81.9228 8.39215 81.9842 8.45406 82.0277C10.9717 83.8707 19.3424 88.5019 26.0015 76.3627Z" fill="url(#paint3_linear_519_12813)"/>
<path d="M149.965 69.6605C149.943 69.62 149.929 69.5751 149.925 69.5289C149.922 69.4827 149.928 69.4362 149.943 69.3925C149.959 69.3489 149.983 69.3091 150.015 69.2758C150.047 69.2426 150.086 69.2166 150.129 69.1997C151.367 68.6976 155.754 67.2149 158.149 70.204C159.754 72.1703 162.022 73.4665 164.516 73.8428C164.582 73.8489 164.645 73.876 164.695 73.9202C164.745 73.9644 164.78 74.0235 164.794 74.0889C164.809 74.1544 164.803 74.223 164.778 74.2849C164.752 74.3467 164.707 74.3988 164.65 74.4335C162.536 75.9635 155.532 79.8327 149.965 69.6605Z" fill="url(#paint4_linear_519_12813)"/>
<path d="M0.0652175 50.4898C0.0291644 50.4223 0.00750305 50.3479 0.00162951 50.2713C-0.00424402 50.1948 0.00580061 50.1179 0.031116 50.0456C0.0564314 49.9732 0.0964559 49.907 0.14861 49.8513C0.200764 49.7955 0.26389 49.7515 0.33392 49.7219C2.3784 48.9008 9.61585 46.4552 13.5705 51.3818C16.2195 54.63 19.9661 56.7686 24.0849 57.3835C24.1879 57.3989 24.284 57.4451 24.3607 57.5163C24.4374 57.5875 24.4912 57.6804 24.5151 57.7828C24.539 57.8853 24.5319 57.9927 24.4948 58.0911C24.4577 58.1894 24.3922 58.2742 24.3069 58.3346C20.7962 60.8392 9.24785 67.2308 0.0652175 50.4898Z" fill="url(#paint5_linear_519_12813)"/>
<path d="M25.5627 32.3142C25.2479 31.0795 26.3878 29.9671 27.6145 30.3118L30.9978 31.2626C32.2245 31.6073 32.618 33.1507 31.7061 34.0406L29.1911 36.4953C28.2792 37.3853 26.7458 36.9544 26.431 35.7197L25.5627 32.3142Z" fill="#BDDBFF"/>
<path d="M147.402 7.99866C147.891 5.97173 150.774 5.97173 151.264 7.99866L151.54 9.14305C151.715 9.86739 152.28 10.4329 153.005 10.6078L154.149 10.884C156.176 11.3733 156.176 14.2564 154.149 14.7457L153.005 15.022C152.28 15.1968 151.715 15.7624 151.54 16.4867L151.264 17.6311C150.774 19.658 147.891 19.658 147.402 17.6311L147.126 16.4867C146.951 15.7624 146.385 15.1968 145.661 15.022L144.517 14.7457C142.49 14.2564 142.49 11.3733 144.517 10.884L145.661 10.6078C146.385 10.4329 146.951 9.86739 147.126 9.14305L147.402 7.99866Z" fill="#BDDBFF"/>
<path d="M55.7883 135.096C56.2776 133.069 59.1607 133.069 59.65 135.096L59.9263 136.241C60.1011 136.965 60.6667 137.531 61.391 137.705L62.5354 137.982C64.5623 138.471 64.5623 141.354 62.5354 141.843L61.391 142.12C60.6667 142.294 60.1011 142.86 59.9263 143.584L59.65 144.729C59.1607 146.756 56.2776 146.756 55.7883 144.729L55.5121 143.584C55.3372 142.86 54.7717 142.294 54.0473 142.12L52.903 141.843C50.876 141.354 50.876 138.471 52.903 137.982L54.0473 137.705C54.7717 137.531 55.3372 136.965 55.5121 136.241L55.7883 135.096Z" fill="#BDDBFF"/>
<path d="M36.3838 123.175C37.7623 123.175 38.8807 124.292 38.8809 125.671C38.8809 127.05 37.7624 128.168 36.3838 128.168C35.0053 128.168 33.8877 127.049 33.8877 125.671C33.8879 124.293 35.0054 123.175 36.3838 123.175Z" stroke="#BDDBFF" stroke-width="2.48287"/>
<path d="M40.8999 7.69043C42.2784 7.69043 43.3968 8.80806 43.397 10.1865C43.397 11.5652 42.2785 12.6836 40.8999 12.6836C39.5214 12.6834 38.4038 11.565 38.4038 10.1865C38.404 8.80818 39.5216 7.69063 40.8999 7.69043Z" stroke="#99B5FC" stroke-width="2.48287"/>
<path d="M157.675 117.37C159.053 117.37 160.172 118.488 160.172 119.866C160.172 121.245 159.053 122.363 157.675 122.363C156.296 122.363 155.179 121.245 155.179 119.866C155.179 118.488 156.296 117.37 157.675 117.37Z" stroke="#99B5FC" stroke-width="2.48287"/>
<defs>
<linearGradient id="paint0_linear_519_12813" x1="103.56" y1="110.83" x2="164.959" y2="117.803" gradientUnits="userSpaceOnUse">
<stop offset="0.0844027" stop-color="#BDD7FF"/>
<stop offset="1" stop-color="#FFF6F5"/>
</linearGradient>
<linearGradient id="paint1_linear_519_12813" x1="86.7221" y1="-22.327" x2="88.2381" y2="237.554" gradientUnits="userSpaceOnUse">
<stop stop-color="white" stop-opacity="0"/>
<stop offset="1" stop-color="#9DB3FF"/>
</linearGradient>
<linearGradient id="paint2_linear_519_12813" x1="169.777" y1="55.8076" x2="162.143" y2="38.2655" gradientUnits="userSpaceOnUse">
<stop stop-color="#99D4FF"/>
<stop offset="1" stop-color="#DAE2FF"/>
</linearGradient>
<linearGradient id="paint3_linear_519_12813" x1="30.3694" y1="84.9406" x2="24.2382" y2="70.8588" gradientUnits="userSpaceOnUse">
<stop stop-color="#99D4FF"/>
<stop offset="1" stop-color="#DAE2FF"/>
</linearGradient>
<linearGradient id="paint4_linear_519_12813" x1="168.422" y1="76.8568" x2="163.278" y2="65.0512" gradientUnits="userSpaceOnUse">
<stop stop-color="#99D4FF"/>
<stop offset="1" stop-color="#DAE2FF"/>
</linearGradient>
<linearGradient id="paint5_linear_519_12813" x1="30.4966" y1="62.3223" x2="22.045" y2="42.8862" gradientUnits="userSpaceOnUse">
<stop stop-color="#99D4FF"/>
<stop offset="1" stop-color="#DAE2FF"/>
</linearGradient>
</defs>
</svg>
