<svg width="16" height="16" viewBox="0 0 16 16" fill="none" xmlns="http://www.w3.org/2000/svg">
<path d="M9.77378 3.84132L10.6744 2.9413C10.9132 2.70251 11.2371 2.56836 11.5748 2.56836C11.9125 2.56836 12.2364 2.70251 12.4751 2.9413C12.7139 3.18008 12.8481 3.50395 12.8481 3.84164C12.8481 4.17934 12.7139 4.50321 12.4751 4.74199L11.5751 5.64266M9.77378 3.84132L4.48411 9.13099C3.81278 9.80296 3.4768 10.1383 3.2481 10.5475C3.01939 10.9567 2.78941 11.9223 2.5697 12.8467C3.4935 12.627 4.4597 12.397 4.86892 12.1683C5.27814 11.9396 5.61412 11.6037 6.28545 10.9323L11.5751 5.64266M9.77378 3.84132L11.5751 5.64266M7.06663 12.8467H10.9211" stroke="#406896" stroke-width="0.963627" stroke-linecap="round" stroke-linejoin="round"/>
</svg>
