<svg width="15" height="15" viewBox="0 0 15 15" fill="none" xmlns="http://www.w3.org/2000/svg">
<path d="M8.78202 14.0101C8.57083 14.0101 8.36828 13.9262 8.21894 13.7768C8.0696 13.6275 7.9857 13.4249 7.9857 13.2138C7.9857 13.0026 8.0696 12.8 8.21894 12.6507C8.36828 12.5013 8.57083 12.4174 8.78202 12.4174H13.2246C13.4358 12.4174 13.6384 12.5013 13.7877 12.6507C13.937 12.8 14.0209 13.0026 14.0209 13.2138C14.0209 13.4249 13.937 13.6275 13.7877 13.7768C13.6384 13.9262 13.4358 14.0101 13.2246 14.0101H8.78202ZM0.665554 13.6802L0.0431251 10.9952C-0.0131247 10.7533 -0.0143634 10.502 0.0395002 10.2596C0.0933639 10.0172 0.200956 9.78998 0.354339 9.59472L5.20617 3.32608C5.24559 3.27857 5.30158 3.2478 5.36283 3.24C5.42407 3.2322 5.48599 3.24795 5.53606 3.28407L7.57607 4.90705C7.64579 4.96393 7.72643 5.00591 7.81301 5.0304C7.89959 5.05489 7.99027 5.06137 8.07946 5.04943C8.27065 5.02453 8.44441 4.92552 8.56331 4.77374C8.68221 4.62195 8.73672 4.42953 8.71511 4.23794C8.69004 4.04844 8.59949 3.87367 8.45914 3.74389L6.47826 2.15514C6.41797 2.10707 6.37896 2.03724 6.36965 1.9607C6.36034 1.88416 6.38146 1.80702 6.42847 1.74589L7.19561 0.750006C7.36963 0.53376 7.58655 0.355893 7.83269 0.227606C8.07884 0.0993192 8.34889 0.0233928 8.62582 0.00460892C8.90276 -0.014175 9.18058 0.0245905 9.4418 0.118464C9.70301 0.212337 9.94196 0.359284 10.1436 0.55005L11.2912 1.46191C11.7393 1.79741 12.055 2.28001 12.1828 2.82503C12.2441 3.10131 12.2417 3.38789 12.1759 3.66312C12.1101 3.93835 11.9827 4.19504 11.8031 4.41378L4.96731 13.2538C4.81677 13.4485 4.62431 13.6067 4.40421 13.7168C4.18411 13.8268 3.94205 13.8858 3.696 13.8895L0.972878 13.9222C0.901705 13.923 0.832376 13.8995 0.776452 13.8555C0.720527 13.8115 0.681385 13.7496 0.665554 13.6802Z" fill="#5B87B9"/>
</svg>
