<svg width="18" height="18" viewBox="0 0 18 18" fill="none" xmlns="http://www.w3.org/2000/svg">
<path d="M13.6777 10.5547C15.2342 10.5547 16.5 11.8035 16.5 13.3398C16.4999 14.8753 15.2341 16.125 13.6777 16.125C12.1215 16.1248 10.8565 14.8752 10.8564 13.3398C10.8564 11.8036 12.1214 10.5548 13.6777 10.5547ZM13.6777 11.8604C12.8511 11.8605 12.1797 12.5239 12.1797 13.3398C12.1798 14.1549 12.8512 14.8182 13.6777 14.8184C14.5044 14.8184 15.1757 14.155 15.1758 13.3398C15.1758 12.5238 14.5045 11.8604 13.6777 11.8604ZM7.58789 12.6865C7.95317 12.6865 8.25 12.9793 8.25 13.3398C8.24977 13.7002 7.95302 13.9922 7.58789 13.9922H2.16211C1.79709 13.992 1.50121 13.7001 1.50098 13.3398C1.50098 12.9794 1.79694 12.6867 2.16211 12.6865H7.58789ZM4.32129 1.875C5.87768 1.875 7.14346 3.12473 7.14355 4.66016C7.14355 6.19565 5.87773 7.44531 4.32129 7.44531C2.76592 7.44508 1.5 6.19551 1.5 4.66016C1.50009 3.12487 2.76598 1.87523 4.32129 1.875ZM4.32129 3.18164C3.49567 3.18187 2.82333 3.84516 2.82324 4.66016C2.82324 5.47523 3.49562 6.13942 4.32129 6.13965C5.14804 6.13965 5.82031 5.47537 5.82031 4.66016C5.82022 3.84502 5.14798 3.18164 4.32129 3.18164ZM15.8379 4.00684C16.2031 4.00684 16.4998 4.29974 16.5 4.66016C16.5 5.02073 16.2032 5.31348 15.8379 5.31348H10.4121C10.0468 5.31348 9.75 5.02073 9.75 4.66016C9.75019 4.29974 10.0469 4.00684 10.4121 4.00684H15.8379Z" fill="#3D5E83"/>
</svg>
