<svg width="17" height="16" viewBox="0 0 17 16" fill="none" xmlns="http://www.w3.org/2000/svg">
<path d="M3.73584 0.262939C5.20021 -0.208051 6.78501 -0.0391689 8.11084 0.713135L8.32959 0.844971L8.55322 0.713135C9.81015 0.00150181 11.3015 -0.189263 12.7046 0.196533L12.9263 0.262939C15.9867 1.24832 17.357 4.58984 16.3276 7.78735C15.8114 9.27474 14.9646 10.624 13.8472 11.7356C12.3267 13.2122 10.6504 14.5159 8.85107 15.6223L8.66064 15.7415C8.46672 15.8619 8.22083 15.8636 8.0249 15.7463L7.8208 15.6243C6.0189 14.5162 4.3417 13.2126 2.81592 11.7307C1.70375 10.6243 0.857952 9.27502 0.337402 7.77466C-0.688389 4.58815 0.676213 1.24803 3.73584 0.262939ZM12.5532 1.42212C11.2394 1.00068 9.80504 1.24199 8.69678 2.07153C8.48403 2.23074 8.19215 2.23402 7.97607 2.07935L7.81201 1.96216C6.72534 1.21939 5.36128 1.01966 4.10986 1.42212C1.73983 2.18519 0.665329 4.81531 1.49365 7.38892C1.94921 8.70142 2.696 9.89111 3.67139 10.8616C5.09402 12.2432 6.66018 13.4655 8.33447 14.5071L8.72412 14.2629C10.0853 13.3841 11.3677 12.3871 12.5532 11.2854L12.9927 10.8674C13.9735 9.89171 14.7211 8.70133 15.1724 7.40161C16.0041 4.8175 14.9244 2.1856 12.5532 1.42212ZM10.7925 3.71411C10.895 3.394 11.2376 3.21742 11.5581 3.31958C12.6593 3.67106 13.4401 4.65739 13.5376 5.81567C13.5656 6.15055 13.3171 6.44457 12.9819 6.4729C12.6465 6.50107 12.351 6.25238 12.3228 5.91724C12.2664 5.24817 11.8172 4.68088 11.187 4.47974C10.8666 4.37724 10.6901 4.03436 10.7925 3.71411Z" fill="#2D496A"/>
</svg>
