<svg width="22" height="22" viewBox="0 0 22 22" fill="none" xmlns="http://www.w3.org/2000/svg">
<path d="M16.75 8.107V9.25M16.75 8.107C16.2724 8.10883 15.8016 7.99389 15.3786 7.77219C14.9556 7.5505 14.5932 7.22876 14.323 6.835M16.75 8.107C17.2276 8.10883 17.6984 7.99389 18.1214 7.77219C18.5444 7.5505 18.9068 7.22876 19.177 6.835M14.323 6.835L13.25 7.535M14.323 6.835C14.0027 6.3685 13.8312 5.81589 13.8312 5.25C13.8312 4.68411 14.0027 4.1315 14.323 3.665M19.177 6.835L20.25 7.535M19.177 6.835C19.4973 6.3685 19.6688 5.81589 19.6688 5.25C19.6688 4.68411 19.4973 4.1315 19.177 3.665M16.75 2.393C17.2276 2.39117 17.6984 2.50611 18.1214 2.72781C18.5444 2.9495 18.9068 3.27124 19.177 3.665M16.75 2.393C16.2724 2.39117 15.8016 2.50611 15.3786 2.72781C14.9556 2.9495 14.5932 3.27124 14.323 3.665M16.75 2.393V1.25M19.177 3.665L20.25 2.964M14.323 3.665L13.25 2.965M0.75 4.75C0.75 3.35 0.75 2.65 1.022 2.115C1.26173 1.64435 1.64435 1.26173 2.115 1.022C2.65 0.75 3.35 0.75 4.75 0.75C6.15 0.75 6.85 0.75 7.385 1.022C7.85565 1.26173 8.23827 1.64435 8.478 2.115C8.75 2.65 8.75 3.35 8.75 4.75C8.75 6.15 8.75 6.85 8.478 7.385C8.23827 7.85565 7.85565 8.23827 7.385 8.478C6.85 8.75 6.15 8.75 4.75 8.75C3.35 8.75 2.65 8.75 2.115 8.478C1.64435 8.23827 1.26173 7.85565 1.022 7.385C0.75 6.85 0.75 6.15 0.75 4.75ZM0.75 16.75C0.75 15.35 0.75 14.65 1.022 14.115C1.2619 13.6447 1.64451 13.2625 2.115 13.023C2.65 12.75 3.35 12.75 4.75 12.75C6.15 12.75 6.85 12.75 7.385 13.023C7.85549 13.2625 8.2381 13.6447 8.478 14.115C8.75 14.65 8.75 15.35 8.75 16.75C8.75 18.15 8.75 18.85 8.478 19.385C8.2381 19.8553 7.85549 20.2375 7.385 20.477C6.85 20.75 6.15 20.75 4.75 20.75C3.35 20.75 2.65 20.75 2.115 20.477C1.64451 20.2375 1.2619 19.8553 1.022 19.385C0.75 18.85 0.75 18.15 0.75 16.75ZM12.75 16.75C12.75 15.35 12.75 14.65 13.023 14.115C13.2626 13.6449 13.6449 13.2626 14.115 13.023C14.65 12.75 15.35 12.75 16.75 12.75C18.15 12.75 18.85 12.75 19.385 13.023C19.8551 13.2626 20.2374 13.6449 20.477 14.115C20.75 14.65 20.75 15.35 20.75 16.75C20.75 18.15 20.75 18.85 20.477 19.385C20.2374 19.8551 19.8551 20.2374 19.385 20.477C18.85 20.75 18.15 20.75 16.75 20.75C15.35 20.75 14.65 20.75 14.115 20.477C13.6449 20.2374 13.2626 19.8551 13.023 19.385C12.75 18.85 12.75 18.15 12.75 16.75Z" stroke="#3C5D80" stroke-width="1.5" stroke-linecap="round" stroke-linejoin="round"/>
</svg>
