<svg width="16" height="16" viewBox="0 0 16 16" fill="none" xmlns="http://www.w3.org/2000/svg">
<rect x="0.205041" y="0.205041" width="15.4074" height="15.4074" rx="7.70368" stroke="#3C5D80" stroke-width="0.410082"/>
<path fill-rule="evenodd" clip-rule="evenodd" d="M3.19287 5.81284C3.19287 5.11798 3.4689 4.45158 3.96024 3.96024C4.45158 3.4689 5.11798 3.19287 5.81284 3.19287H10.0048C10.6996 3.19287 11.366 3.4689 11.8574 3.96024C12.3487 4.45158 12.6248 5.11798 12.6248 5.81284V10.0048C12.6248 10.6996 12.3487 11.366 11.8574 11.8574C11.366 12.3487 10.6996 12.6248 10.0048 12.6248H5.81284C5.11798 12.6248 4.45158 12.3487 3.96024 11.8574C3.4689 11.366 3.19287 10.6996 3.19287 10.0048V5.81284ZM5.81284 4.24086C5.39592 4.24086 4.99608 4.40648 4.70128 4.70128C4.40648 4.99608 4.24086 5.39592 4.24086 5.81284V10.0048C4.24086 10.4217 4.40648 10.8215 4.70128 11.1163C4.99608 11.4111 5.39592 11.5768 5.81284 11.5768H10.0048C10.4217 11.5768 10.8215 11.4111 11.1163 11.1163C11.4111 10.8215 11.5768 10.4217 11.5768 10.0048V5.81284C11.5768 5.39592 11.4111 4.99608 11.1163 4.70128C10.8215 4.40648 10.4217 4.24086 10.0048 4.24086H5.81284ZM9.79362 5.40098C9.79362 5.26201 9.84882 5.12873 9.94709 5.03046C10.0454 4.93219 10.1786 4.87699 10.3176 4.87699H10.3228C10.4618 4.87699 10.5951 4.93219 10.6934 5.03046C10.7916 5.12873 10.8468 5.26201 10.8468 5.40098C10.8468 5.53995 10.7916 5.67323 10.6934 5.7715C10.5951 5.86977 10.4618 5.92497 10.3228 5.92497H10.3176C10.1786 5.92497 10.0454 5.86977 9.94709 5.7715C9.84882 5.67323 9.79362 5.53995 9.79362 5.40098ZM7.90881 6.33683C7.4919 6.33683 7.09206 6.50245 6.79725 6.79725C6.50245 7.09206 6.33683 7.4919 6.33683 7.90881C6.33683 8.32573 6.50245 8.72557 6.79725 9.02037C7.09206 9.31517 7.4919 9.48079 7.90881 9.48079C8.32573 9.48079 8.72557 9.31517 9.02037 9.02037C9.31517 8.72557 9.48079 8.32573 9.48079 7.90881C9.48079 7.4919 9.31517 7.09206 9.02037 6.79725C8.72557 6.50245 8.32573 6.33683 7.90881 6.33683ZM5.28884 7.90881C5.28884 7.21395 5.56488 6.54755 6.05622 6.05622C6.54755 5.56488 7.21395 5.28884 7.90881 5.28884C8.60367 5.28884 9.27007 5.56488 9.76141 6.05622C10.2527 6.54755 10.5288 7.21395 10.5288 7.90881C10.5288 8.60367 10.2527 9.27007 9.76141 9.76141C9.27007 10.2527 8.60367 10.5288 7.90881 10.5288C7.21395 10.5288 6.54755 10.2527 6.05622 9.76141C5.56488 9.27007 5.28884 8.60367 5.28884 7.90881Z" fill="#3C5D80"/>
</svg>
