<svg width="18" height="18" viewBox="0 0 18 18" fill="none" xmlns="http://www.w3.org/2000/svg">
<g clip-path="url(#clip0_49_9509)">
<path fill-rule="evenodd" clip-rule="evenodd" d="M8.99998 0C4.02945 0 0 4.02941 0 8.99998C0 13.9705 4.02945 18 8.99998 18C13.9706 18 18 13.9705 18 8.99998C18 4.02941 13.9706 0 8.99998 0ZM8.99998 16.2C5.02993 16.2 1.80001 12.9701 1.80001 8.99998C1.80001 5.02988 5.02988 1.80001 8.99998 1.80001C12.9701 1.80001 16.2 5.02988 16.2 8.99998C16.2 12.9701 12.9701 16.2 8.99998 16.2ZM10.127 5.4C10.127 6.05255 9.65186 6.52501 9.00913 6.52501C8.34042 6.52501 7.87695 6.05251 7.87695 5.38751C7.87695 4.74837 8.35295 4.27502 9.00913 4.27502C9.65186 4.27502 10.127 4.74837 10.127 5.4ZM8.10198 8.09999H9.90195V13.5H8.10198V8.09999Z" fill="#3D5E83"/>
</g>
<defs>
<clipPath id="clip0_49_9509">
<rect width="18" height="18" fill="white"/>
</clipPath>
</defs>
</svg>
