<svg width="12" height="14" viewBox="0 0 12 14" fill="none" xmlns="http://www.w3.org/2000/svg">
<path d="M8.91204 13.9995H2.98818C2.20477 14.0074 1.45023 13.7042 0.890048 13.1565C0.329868 12.6088 0.00978395 11.8612 0 11.0778L0 7.62138C0.00494761 6.99725 0.210064 6.39119 0.585176 5.89234C0.960288 5.39349 1.48559 5.0282 2.08382 4.85019V3.77993C2.0971 2.76847 2.50996 1.80333 3.23229 1.09517C3.95461 0.387013 4.92773 -0.00665702 5.93926 8.51962e-05C6.96237 -0.00468725 7.94645 0.392463 8.67965 1.10604C9.03917 1.45237 9.3251 1.8677 9.5203 2.32716C9.71551 2.78661 9.81598 3.28073 9.8157 3.77993V4.85019C10.4139 5.0282 10.9392 5.39349 11.3143 5.89234C11.6895 6.39119 11.8946 6.99725 11.8995 7.62138V11.0771C11.8899 11.8605 11.57 12.6081 11.01 13.156C10.4499 13.7038 9.69545 14.0072 8.91204 13.9995ZM5.94976 7.96856C5.78744 7.96688 5.63109 8.02971 5.51506 8.14324C5.39904 8.25677 5.33283 8.41172 5.33098 8.57404V10.1182C5.33098 10.2832 5.39654 10.4415 5.51324 10.5582C5.62994 10.6749 5.78822 10.7404 5.95326 10.7404C6.1183 10.7404 6.27658 10.6749 6.39327 10.5582C6.50997 10.4415 6.57553 10.2832 6.57553 10.1182V8.57404C6.57259 8.41085 6.50507 8.25548 6.38777 8.14198C6.27047 8.02849 6.11296 7.96613 5.94976 7.96856ZM5.95676 1.21734C5.27152 1.20926 4.61085 1.47229 4.11867 1.94913C3.62649 2.42597 3.34268 3.07798 3.32907 3.76313V4.69969H8.57115V3.77993C8.56759 3.43976 8.49704 3.10362 8.36353 2.79071C8.23003 2.47781 8.03619 2.19427 7.79308 1.9563C7.54997 1.71833 7.26237 1.53059 6.94668 1.40379C6.631 1.277 6.29343 1.21364 5.95326 1.21734H5.95676Z" fill="#5B87B9"/>
</svg>
