<svg width="24" height="24" viewBox="0 0 24 24" fill="none" xmlns="http://www.w3.org/2000/svg">
<path d="M8.8 12.8H15.2M8.8 8.8H12M7.2792 17.2C6.23973 17.0976 5.4592 16.7851 4.9376 16.2624C4 15.3256 4 13.8168 4 10.8V10.4C4 7.3832 4 5.8744 4.9376 4.9376C5.8752 4.0008 7.3832 4 10.4 4H13.6C16.6168 4 18.1256 4 19.0624 4.9376C19.9992 5.8752 20 7.3832 20 10.4V10.8C20 13.8168 20 15.3256 19.0624 16.2624C18.1248 17.1992 16.6168 17.2 13.6 17.2C13.152 17.2096 12.7944 17.244 12.444 17.324C11.4848 17.5448 10.5968 18.036 9.72 18.4632C8.4696 19.0728 7.8448 19.3776 7.4528 19.092C6.7024 18.5336 7.436 16.8016 7.6 16" stroke="#3D5E83" stroke-linecap="round" stroke-linejoin="round"/>
</svg>
