<svg width="300" height="230" viewBox="0 0 300 230" fill="none" xmlns="http://www.w3.org/2000/svg">
<g filter="url(#filter0_f_4612_62614)">
<ellipse cx="147.187" cy="186.814" rx="110.607" ry="21.3375" fill="#1F88F8" fill-opacity="0.35"/>
</g>
<path d="M148.402 229.402C211.75 229.402 263.103 178.049 263.103 114.701C263.103 51.3534 211.75 0 148.402 0C85.0546 0 33.7012 51.3534 33.7012 114.701C33.7012 178.049 85.0546 229.402 148.402 229.402Z" fill="url(#paint0_linear_4612_62614)"/>
<g filter="url(#filter1_d_4612_62614)">
<path d="M244.484 77.6225L146.193 146.217L47.9023 77.6225L137.88 14.8039C140.32 13.1032 143.223 12.1914 146.197 12.1914C149.172 12.1914 152.074 13.1032 154.515 14.8039L172.463 27.3513L177.162 30.6146L224.48 63.6556L229.465 67.1555L244.484 77.6225Z" fill="url(#paint1_linear_4612_62614)"/>
</g>
<path d="M130.211 135.067L47.9023 193.595V77.625L130.211 135.067Z" fill="url(#paint2_linear_4612_62614)"/>
<g filter="url(#filter2_f_4612_62614)">
<ellipse cx="194.217" cy="75.3355" rx="36.5786" ry="11.7574" fill="#FF4C77" fill-opacity="0.3"/>
</g>
<path d="M162.184 135.067L244.492 193.595V77.625L162.184 135.067Z" fill="url(#paint3_linear_4612_62614)"/>
<path d="M47.9023 193.592L137.774 129.697C140.233 127.945 143.178 127.004 146.197 127.004C149.217 127.004 152.161 127.945 154.621 129.697L244.484 193.592H47.9023Z" fill="url(#paint4_linear_4612_62614)"/>
<path d="M192.294 65.3872C192.294 63.9935 192.585 62.6579 193.165 61.3804C193.746 60.0738 194.457 58.9415 195.299 57.9833C196.141 56.9961 196.983 56.038 197.825 55.1089C198.667 54.1798 199.379 53.1781 199.959 52.1038C200.54 51.0295 200.83 49.9407 200.83 48.8374C200.83 46.834 200.177 45.2371 198.871 44.0467C197.593 42.8272 195.706 42.2175 193.209 42.2175C191.293 42.2175 189.594 42.6966 188.113 43.6547C186.662 44.5838 185.689 45.7743 185.195 47.226L184.455 46.834C185.036 45.2371 186.139 43.9451 187.765 42.9579C189.391 41.9417 191.205 41.4336 193.209 41.4336C195.822 41.4336 197.883 42.1014 199.393 43.437C200.932 44.7435 201.701 46.5437 201.701 48.8374C201.701 49.9988 201.411 51.1457 200.83 52.278C200.25 53.3813 199.538 54.3975 198.696 55.3267C197.854 56.2558 197.012 57.2139 196.17 58.2011C195.328 59.1592 194.617 60.2625 194.036 61.511C193.456 62.7595 193.165 64.0516 193.165 65.3872H192.294ZM193.47 72.4861C193.267 72.6894 193.02 72.791 192.73 72.791C192.439 72.791 192.178 72.6894 191.946 72.4861C191.743 72.2829 191.641 72.0216 191.641 71.7022C191.641 71.3828 191.743 71.1215 191.946 70.9183C192.178 70.715 192.439 70.6134 192.73 70.6134C193.02 70.6134 193.267 70.715 193.47 70.9183C193.702 71.1215 193.819 71.3828 193.819 71.7022C193.819 72.0216 193.702 72.2829 193.47 72.4861Z" fill="white"/>
<g filter="url(#filter3_d_4612_62614)">
<path d="M58.2872 56.6094C43.2187 63.6581 27.0262 67.9972 10.4521 69.4276C12.6916 74.6335 28.6039 100.692 75.8399 122.164C77.1168 122.361 106.613 108.639 122.801 99.2288C122.251 100.015 72.5199 81.7154 58.2872 56.6094Z" fill="url(#paint5_linear_4612_62614)"/>
</g>
<path d="M195.345 85.1315C213.458 85.1315 228.141 70.4481 228.141 52.3353C228.141 34.2224 213.458 19.5391 195.345 19.5391C177.232 19.5391 162.549 34.2224 162.549 52.3353C162.549 70.4481 177.232 85.1315 195.345 85.1315Z" fill="url(#paint6_linear_4612_62614)"/>
<path d="M193.512 68.9877C193.512 67.211 193.882 65.5084 194.622 63.8798C195.362 62.2141 196.269 60.7706 197.343 59.5491C198.416 58.2906 199.489 57.0692 200.563 55.8847C201.636 54.7003 202.543 53.4233 203.283 52.0538C204.024 50.6842 204.394 49.2962 204.394 47.8897C204.394 45.3357 203.561 43.2999 201.895 41.7824C200.267 40.2278 197.861 39.4505 194.678 39.4505C192.235 39.4505 190.069 40.0612 188.182 41.2827C186.331 42.4671 185.091 43.9847 184.462 45.8354L183.518 45.3357C184.258 43.2999 185.665 41.6528 187.737 40.3943C189.81 39.0988 192.124 38.4511 194.678 38.4511C198.009 38.4511 200.637 39.3024 202.562 41.0051C204.523 42.6707 205.504 44.9656 205.504 47.8897C205.504 49.3702 205.134 50.8323 204.394 52.2758C203.654 53.6824 202.747 54.9779 201.673 56.1623C200.6 57.3468 199.526 58.5682 198.453 59.8267C197.38 61.0482 196.473 62.4547 195.732 64.0463C194.992 65.6379 194.622 67.2851 194.622 68.9877H193.512ZM195.011 78.0377C194.752 78.2968 194.437 78.4263 194.067 78.4263C193.697 78.4263 193.364 78.2968 193.067 78.0377C192.808 77.7786 192.679 77.4454 192.679 77.0383C192.679 76.6311 192.808 76.298 193.067 76.0389C193.364 75.7798 193.697 75.6502 194.067 75.6502C194.437 75.6502 194.752 75.7798 195.011 76.0389C195.307 76.298 195.455 76.6311 195.455 77.0383C195.455 77.4454 195.307 77.7786 195.011 78.0377Z" fill="white"/>
<path d="M59.4529 69.5645C58.7595 69.0834 57.8812 68.9535 57.0782 69.2133L30.7142 77.7429C29.7698 78.0484 29.4333 79.2117 30.0688 79.9742C30.5805 80.5883 31.4181 80.8228 32.1743 80.5638L59.2109 71.3033C59.9738 71.042 60.1155 70.0242 59.4529 69.5645Z" fill="#C9DFFF"/>
<path d="M58.9958 80.0712C58.3271 79.4433 57.3673 79.2341 56.498 79.5266L38.2466 85.6691C37.4418 85.9399 37.1576 86.9329 37.6973 87.5885C38.1382 88.1241 38.8648 88.3306 39.5215 88.107L58.668 81.5879C59.3143 81.3678 59.4936 80.5385 58.9958 80.0712Z" fill="#C9DFFF"/>
<path d="M68.792 85.2741C68.0942 84.7153 67.1557 84.5606 66.3155 84.866L45.2921 92.5069C44.467 92.8068 44.2187 93.8535 44.8212 94.4921C45.2821 94.9807 45.9899 95.1474 46.6205 94.916L68.5306 86.8758C69.2117 86.6258 69.3583 85.7276 68.792 85.2741Z" fill="#C9DFFF"/>
<path d="M76.1418 101.045C75.4955 100.33 74.477 100.086 73.577 100.429L61.5621 105.014C60.8243 105.296 60.5583 106.203 61.0274 106.839C61.4669 107.434 62.2505 107.662 62.9406 107.394L75.8187 102.407C76.3741 102.191 76.5414 101.486 76.1418 101.045Z" fill="#C9DFFF"/>
<g filter="url(#filter4_d_4612_62614)">
<path d="M232.471 92.9492C250.742 101.496 270.377 106.758 290.474 108.492C287.758 114.805 268.463 146.402 211.187 172.438C209.639 172.676 173.872 156.038 154.244 144.628C154.911 145.581 215.213 123.392 232.471 92.9492Z" fill="url(#paint7_linear_4612_62614)"/>
</g>
<path d="M231.057 108.66C231.897 108.076 232.962 107.919 233.936 108.234L265.904 118.576C267.049 118.947 267.457 120.357 266.687 121.282C266.066 122.027 265.05 122.311 264.134 121.997L231.35 110.768C230.425 110.451 230.253 109.217 231.057 108.66Z" fill="#C9DFFF"/>
<path d="M222.107 117.172C222.918 116.411 224.082 116.157 225.136 116.512L247.267 123.96C248.243 124.288 248.587 125.492 247.933 126.287C247.398 126.937 246.517 127.187 245.721 126.916L222.504 119.011C221.721 118.744 221.503 117.739 222.107 117.172Z" fill="#C9DFFF"/>
<path d="M212.909 124.241C213.755 123.564 214.893 123.376 215.912 123.746L241.404 133.011C242.404 133.375 242.705 134.644 241.975 135.419C241.416 136.011 240.558 136.213 239.793 135.933L213.226 126.183C212.4 125.88 212.222 124.791 212.909 124.241Z" fill="#C9DFFF"/>
<path d="M192.21 138.38C192.994 137.513 194.229 137.217 195.32 137.634L209.889 143.193C210.784 143.535 211.106 144.635 210.538 145.405C210.005 146.127 209.054 146.403 208.218 146.079L192.602 140.031C191.929 139.77 191.726 138.915 192.21 138.38Z" fill="#C9DFFF"/>
<path d="M201.72 130.83C202.583 130.289 203.647 130.177 204.603 130.527L238.171 142.8C239.244 143.192 239.503 144.591 238.643 145.343C238.074 145.84 237.279 145.986 236.57 145.725L201.943 132.969C201.009 132.625 200.877 131.359 201.72 130.83Z" fill="#C9DFFF"/>
<path d="M83.4143 88.7221C82.7031 88.2759 81.8256 88.1836 81.0371 88.4719L53.3535 98.5939C52.4687 98.9174 52.2544 100.071 52.9639 100.691C53.4332 101.101 54.0888 101.222 54.6735 101.006L83.2308 90.4864C84.0009 90.2027 84.1096 89.1582 83.4143 88.7221Z" fill="#C9DFFF"/>
<path d="M238.634 22.209C241.279 22.2091 243.424 24.3536 243.424 26.999C243.424 29.6443 241.279 31.7889 238.634 31.7891C235.988 31.7891 233.844 29.6444 233.844 26.999C233.844 24.3535 235.988 22.209 238.634 22.209Z" stroke="url(#paint8_linear_4612_62614)" stroke-width="2.61276"/>
<circle cx="68.8054" cy="204.667" r="4.79006" stroke="url(#paint9_linear_4612_62614)" stroke-width="2.61276"/>
<circle cx="215.991" cy="214.245" r="4.79006" stroke="url(#paint10_linear_4612_62614)" stroke-width="2.61276"/>
<path d="M85.0636 31.9327C85.5785 29.7998 88.6124 29.7998 89.1273 31.9327L90.8602 39.1116C91.0442 39.8738 91.6393 40.4689 92.4016 40.6529L99.5804 42.3859C101.713 42.9007 101.713 45.9347 99.5804 46.4495L92.4016 48.1825C91.6393 48.3665 91.0442 48.9616 90.8602 49.7238L89.1273 56.9027C88.6124 59.0356 85.5785 59.0356 85.0636 56.9027L83.3307 49.7238C83.1467 48.9616 82.5515 48.3665 81.7893 48.1825L74.6105 46.4495C72.4775 45.9347 72.4775 42.9007 74.6105 42.3859L81.7893 40.6529C82.5515 40.4689 83.1467 39.8738 83.3307 39.1116L85.0636 31.9327Z" fill="url(#paint11_linear_4612_62614)"/>
<path d="M259.573 183.417C260.088 181.284 263.122 181.284 263.637 183.417L265.37 190.596C265.554 191.358 266.149 191.953 266.911 192.137L274.09 193.87C276.223 194.385 276.223 197.419 274.09 197.934L266.911 199.667C266.149 199.851 265.554 200.446 265.37 201.208L263.637 208.387C263.122 210.52 260.088 210.52 259.573 208.387L257.84 201.208C257.656 200.446 257.061 199.851 256.299 199.667L249.12 197.934C246.987 197.419 246.987 194.385 249.12 193.87L256.299 192.137C257.061 191.953 257.656 191.358 257.84 190.596L259.573 183.417Z" fill="url(#paint12_linear_4612_62614)"/>
<path d="M36.9373 166.615C38.2613 166.403 39.3183 167.704 38.84 168.956L35.6109 177.411C35.1325 178.664 33.4775 178.929 32.6319 177.889L26.924 170.864C26.0783 169.824 26.6763 168.258 28.0003 168.046L36.9373 166.615Z" fill="url(#paint13_linear_4612_62614)"/>
<path d="M263.033 80.4224C262.701 79.1231 263.901 77.9524 265.192 78.3152L273.905 80.7638C275.196 81.1265 275.61 82.7506 274.651 83.6872L268.173 90.0089C267.214 90.9454 265.6 90.492 265.269 89.1927L263.033 80.4224Z" fill="url(#paint14_linear_4612_62614)"/>
<defs>
<filter id="filter0_f_4612_62614" x="14.8071" y="143.704" width="264.759" height="86.2218" filterUnits="userSpaceOnUse" color-interpolation-filters="sRGB">
<feFlood flood-opacity="0" result="BackgroundImageFix"/>
<feBlend mode="normal" in="SourceGraphic" in2="BackgroundImageFix" result="shape"/>
<feGaussianBlur stdDeviation="10.8865" result="effect1_foregroundBlur_4612_62614"/>
</filter>
<filter id="filter1_d_4612_62614" x="44.4187" y="12.1914" width="203.549" height="140.993" filterUnits="userSpaceOnUse" color-interpolation-filters="sRGB">
<feFlood flood-opacity="0" result="BackgroundImageFix"/>
<feColorMatrix in="SourceAlpha" type="matrix" values="0 0 0 0 0 0 0 0 0 0 0 0 0 0 0 0 0 0 127 0" result="hardAlpha"/>
<feOffset dy="3.48368"/>
<feGaussianBlur stdDeviation="1.74184"/>
<feComposite in2="hardAlpha" operator="out"/>
<feColorMatrix type="matrix" values="0 0 0 0 0 0 0 0 0 0 0 0 0 0 0 0 0 0 0.25 0"/>
<feBlend mode="normal" in2="BackgroundImageFix" result="effect1_dropShadow_4612_62614"/>
<feBlend mode="normal" in="SourceGraphic" in2="effect1_dropShadow_4612_62614" result="shape"/>
</filter>
<filter id="filter2_f_4612_62614" x="135.866" y="41.8051" width="116.704" height="67.0616" filterUnits="userSpaceOnUse" color-interpolation-filters="sRGB">
<feFlood flood-opacity="0" result="BackgroundImageFix"/>
<feBlend mode="normal" in="SourceGraphic" in2="BackgroundImageFix" result="shape"/>
<feGaussianBlur stdDeviation="10.8865" result="effect1_foregroundBlur_4612_62614"/>
</filter>
<filter id="filter3_d_4612_62614" x="0.000134468" y="49.642" width="133.252" height="86.4587" filterUnits="userSpaceOnUse" color-interpolation-filters="sRGB">
<feFlood flood-opacity="0" result="BackgroundImageFix"/>
<feColorMatrix in="SourceAlpha" type="matrix" values="0 0 0 0 0 0 0 0 0 0 0 0 0 0 0 0 0 0 127 0" result="hardAlpha"/>
<feOffset dy="3.48368"/>
<feGaussianBlur stdDeviation="5.22552"/>
<feComposite in2="hardAlpha" operator="out"/>
<feColorMatrix type="matrix" values="0 0 0 0 0.0196078 0 0 0 0 0.168627 0 0 0 0 0.396078 0 0 0 0.15 0"/>
<feBlend mode="normal" in2="BackgroundImageFix" result="effect1_dropShadow_4612_62614"/>
<feBlend mode="normal" in="SourceGraphic" in2="effect1_dropShadow_4612_62614" result="shape"/>
</filter>
<filter id="filter4_d_4612_62614" x="134.158" y="91.2074" width="165.84" height="109.103" filterUnits="userSpaceOnUse" color-interpolation-filters="sRGB">
<feFlood flood-opacity="0" result="BackgroundImageFix"/>
<feColorMatrix in="SourceAlpha" type="matrix" values="0 0 0 0 0 0 0 0 0 0 0 0 0 0 0 0 0 0 127 0" result="hardAlpha"/>
<feOffset dx="-5.28021" dy="13.0638"/>
<feGaussianBlur stdDeviation="7.40282"/>
<feComposite in2="hardAlpha" operator="out"/>
<feColorMatrix type="matrix" values="0 0 0 0 0.021441 0 0 0 0 0.168056 0 0 0 0 0.395833 0 0 0 0.15 0"/>
<feBlend mode="normal" in2="BackgroundImageFix" result="effect1_dropShadow_4612_62614"/>
<feBlend mode="normal" in="SourceGraphic" in2="effect1_dropShadow_4612_62614" result="shape"/>
</filter>
<linearGradient id="paint0_linear_4612_62614" x1="147.518" y1="-37.3495" x2="149.868" y2="365.463" gradientUnits="userSpaceOnUse">
<stop stop-color="#CAE0FF" stop-opacity="0"/>
<stop offset="1" stop-color="#BCD8FF"/>
</linearGradient>
<linearGradient id="paint1_linear_4612_62614" x1="146.193" y1="12.1914" x2="146.193" y2="146.217" gradientUnits="userSpaceOnUse">
<stop stop-color="#EDF4FF"/>
<stop offset="1" stop-color="#ABCCFF"/>
</linearGradient>
<linearGradient id="paint2_linear_4612_62614" x1="89.0567" y1="77.625" x2="89.0567" y2="193.595" gradientUnits="userSpaceOnUse">
<stop stop-color="#ABCCFF"/>
<stop offset="1" stop-color="#70A8FF"/>
</linearGradient>
<linearGradient id="paint3_linear_4612_62614" x1="203.338" y1="77.625" x2="203.338" y2="193.595" gradientUnits="userSpaceOnUse">
<stop stop-color="#ABCCFF"/>
<stop offset="1" stop-color="#70A8FF"/>
</linearGradient>
<linearGradient id="paint4_linear_4612_62614" x1="146.193" y1="127.004" x2="146.193" y2="193.592" gradientUnits="userSpaceOnUse">
<stop stop-color="#70A8FF"/>
<stop offset="1" stop-color="#5597FD"/>
</linearGradient>
<linearGradient id="paint5_linear_4612_62614" x1="22.645" y1="85.7852" x2="96.2377" y2="71.415" gradientUnits="userSpaceOnUse">
<stop stop-color="#C6DDFF"/>
<stop offset="1" stop-color="white"/>
</linearGradient>
<linearGradient id="paint6_linear_4612_62614" x1="162.862" y1="23.9522" x2="228.181" y2="85.352" gradientUnits="userSpaceOnUse">
<stop stop-color="#FF698D"/>
<stop offset="1" stop-color="#FF3868"/>
</linearGradient>
<linearGradient id="paint7_linear_4612_62614" x1="275.689" y1="128.327" x2="186.453" y2="110.902" gradientUnits="userSpaceOnUse">
<stop stop-color="#C6DDFF"/>
<stop offset="1" stop-color="white"/>
</linearGradient>
<linearGradient id="paint8_linear_4612_62614" x1="231.14" y1="23.1885" x2="250.191" y2="39.6997" gradientUnits="userSpaceOnUse">
<stop stop-color="#94BFFF"/>
<stop offset="1" stop-color="#4C94FE"/>
</linearGradient>
<linearGradient id="paint9_linear_4612_62614" x1="61.3119" y1="200.856" x2="80.3632" y2="217.368" gradientUnits="userSpaceOnUse">
<stop stop-color="#94BFFF"/>
<stop offset="1" stop-color="#4C94FE"/>
</linearGradient>
<linearGradient id="paint10_linear_4612_62614" x1="208.497" y1="210.435" x2="227.549" y2="226.946" gradientUnits="userSpaceOnUse">
<stop stop-color="#94BFFF"/>
<stop offset="1" stop-color="#4C94FE"/>
</linearGradient>
<linearGradient id="paint11_linear_4612_62614" x1="87.0954" y1="23.5156" x2="87.0954" y2="65.3198" gradientUnits="userSpaceOnUse">
<stop stop-color="#70A8FF"/>
<stop offset="1" stop-color="#5597FD"/>
</linearGradient>
<linearGradient id="paint12_linear_4612_62614" x1="261.605" y1="175" x2="261.605" y2="216.804" gradientUnits="userSpaceOnUse">
<stop stop-color="#70A8FF"/>
<stop offset="1" stop-color="#5597FD"/>
</linearGradient>
<linearGradient id="paint13_linear_4612_62614" x1="39.9163" y1="166.138" x2="26.3985" y2="177.123" gradientUnits="userSpaceOnUse">
<stop stop-color="#70A8FF"/>
<stop offset="1" stop-color="#5597FD"/>
</linearGradient>
<linearGradient id="paint14_linear_4612_62614" x1="262.287" y1="77.499" x2="274.453" y2="89.9644" gradientUnits="userSpaceOnUse">
<stop stop-color="#70A8FF"/>
<stop offset="1" stop-color="#5597FD"/>
</linearGradient>
</defs>
</svg>
