<svg width="24" height="24" viewBox="0 0 24 24" fill="none" xmlns="http://www.w3.org/2000/svg">
<path d="M6.29834 11.5423C6.2375 12.7987 6.3075 14.1361 5.26834 14.9776C5.02942 15.1707 4.83555 15.4214 4.70216 15.7097C4.56877 15.9979 4.49955 16.3159 4.5 16.6381C4.5 17.5354 5.15167 18.3004 6 18.3004H18C18.8483 18.3004 19.5 17.5354 19.5 16.6381C19.5 15.9847 19.215 15.3691 18.7317 14.9776C17.6925 14.1361 17.7625 12.7987 17.7017 11.5423C17.6267 9.96381 16.9933 8.47667 15.9322 7.38802C14.8712 6.29938 13.4635 5.69238 12 5.69238C10.5365 5.69238 9.12885 6.29938 8.0678 7.38802C7.00675 8.47667 6.37333 9.96381 6.29834 11.5423Z" stroke="#3D5E83" stroke-linecap="round" stroke-linejoin="round"/>
<path d="M14.5039 18.3C14.5039 19.0161 14.2405 19.7028 13.7717 20.2092C13.3028 20.7155 12.6669 21 12.0039 21C11.3409 21 10.705 20.7155 10.2361 20.2092C9.7673 19.7028 9.50391 19.0161 9.50391 18.3M10.7539 4.0125C10.7539 4.7577 11.3139 5.7 12.0039 5.7C12.6939 5.7 13.2539 4.7577 13.2539 4.0125C13.2539 3.2673 12.6939 3 12.0039 3C11.3139 3 10.7539 3.2673 10.7539 4.0125Z" stroke="#3D5E83" stroke-linecap="round" stroke-linejoin="round"/>
</svg>
