<svg width="18" height="16" viewBox="0 0 18 16" fill="none" xmlns="http://www.w3.org/2000/svg">
<path d="M2 0C1.45 0 1 0.18 0.59 0.57C0.2 0.96 0 1.44 0 2V14C0 14.56 0.2 15.04 0.59 15.43C1 15.82 1.45 16 2 16H16C16.5 16 17 15.81 17.39 15.41C17.8 15 18 14.53 18 14V2C18 1.47 17.8 1 17.39 0.59C17 0.19 16.5 0 16 0H2ZM1.5 1.5H16.5V14.5H1.5V1.5ZM4 5C3.7 5 3.47 5.09 3.28 5.28C3.09 5.47 3 5.7 3 6V10C3 10.3 3.09 10.53 3.28 10.72C3.47 10.91 3.7 11 4 11H7C7.27 11 7.5 10.91 7.71 10.72C7.91 10.53 8 10.3 8 10V9H6.5V9.5H4.5V6.5H6.5V7H8V6C8 5.7 7.91 5.47 7.71 5.28C7.5 5.09 7.27 5 7 5H4ZM11 5C10.73 5 10.5 5.09 10.29 5.28C10.09 5.47 10 5.7 10 6V10C10 10.3 10.09 10.53 10.29 10.72C10.5 10.91 10.73 11 11 11H14C14.3 11 14.53 10.91 14.72 10.72C14.91 10.53 15 10.3 15 10V9H13.5V9.5H11.5V6.5H13.5V7H15V6C15 5.7 14.91 5.47 14.72 5.28C14.53 5.09 14.3 5 14 5H11Z" fill="#717171"/>
</svg>
