<svg width="19" height="21" viewBox="0 0 19 21" fill="none" xmlns="http://www.w3.org/2000/svg">
<path d="M8.64375 0.132103C9.05481 -0.0216963 9.50395 -0.0417469 9.92708 0.0748119L10.1062 0.132103L17.3979 2.86648C17.7676 3.00511 18.0903 3.24596 18.3284 3.56096C18.5665 3.87596 18.7102 4.25213 18.7427 4.64565L18.75 4.81752V10.404C18.75 12.0919 18.2942 13.7485 17.4308 15.199C16.5675 16.6494 15.3285 17.8398 13.8448 18.6446L13.5677 18.7894L10.074 20.5363C9.88159 20.6323 9.67146 20.6876 9.45674 20.6987C9.24201 20.7099 9.0273 20.6765 8.82604 20.6009L8.67604 20.5363L5.18229 18.7894C3.67251 18.0345 2.39456 16.886 1.48334 15.465C0.572117 14.0441 0.0614381 12.4035 0.00520845 10.7165L0 10.404V4.81752C6.05734e-06 4.42286 0.112111 4.03633 0.323264 3.70291C0.534418 3.36949 0.835932 3.1029 1.19271 2.93419L1.35208 2.86648L8.64375 0.132103ZM9.375 2.08314L2.08333 4.81752V10.404C2.08336 11.7113 2.43485 12.9945 3.101 14.1194C3.76714 15.2442 4.72345 16.1693 5.86979 16.7977L6.11458 16.9259L9.375 18.5561L12.6354 16.9259C13.8049 16.3412 14.7957 15.4529 15.504 14.3538C16.2123 13.2548 16.6121 11.9855 16.6615 10.679L16.6667 10.404V4.81752L9.375 2.08314ZM12.951 6.83419C13.1385 6.64737 13.39 6.5389 13.6546 6.53082C13.9191 6.52275 14.1768 6.61566 14.3753 6.7907C14.5738 6.96573 14.6982 7.20976 14.7233 7.47322C14.7484 7.73668 14.6723 7.99982 14.5104 8.20919L14.424 8.3071L8.97187 13.7602C8.77328 13.9588 8.50867 14.0775 8.2283 14.0938C7.94794 14.1102 7.67134 14.023 7.45104 13.8488L7.35104 13.7602L4.84687 11.2561C4.65807 11.069 4.54788 10.8169 4.53887 10.5513C4.52986 10.2857 4.6227 10.0267 4.7984 9.82733C4.9741 9.62794 5.21936 9.50325 5.48398 9.47877C5.74861 9.45428 6.01258 9.53187 6.22187 9.69564L6.31979 9.7821L8.16146 11.6238L12.951 6.83419Z" fill="#717171"/>
</svg>
