<svg width="13" height="13" viewBox="0 0 13 13" fill="none" xmlns="http://www.w3.org/2000/svg">
<path d="M12.6231 0.379095C12.4632 0.215146 12.2615 0.0980309 12.0398 0.0404107C11.8182 -0.0172095 11.585 -0.0131422 11.3655 0.052173L0.906547 3.09456C0.678267 3.15702 0.47247 3.28314 0.313189 3.45819C0.153908 3.63323 0.0477184 3.84999 0.00702303 4.08313C-0.0190338 4.34823 0.0277181 4.61543 0.142244 4.85593C0.256771 5.09644 0.434733 5.30114 0.656968 5.44801L3.93009 7.46024C4.09292 7.561 4.28513 7.60346 4.47525 7.58067C4.66537 7.55788 4.8421 7.47119 4.9765 7.3348L8.72213 3.56512C8.76666 3.51865 8.82014 3.48166 8.87934 3.4564C8.93854 3.43113 9.00224 3.4181 9.0666 3.4181C9.13097 3.4181 9.19467 3.43113 9.25387 3.4564C9.31307 3.48166 9.36654 3.51865 9.41107 3.56512C9.5017 3.65779 9.55245 3.78225 9.55245 3.91187C9.55245 4.04149 9.5017 4.16595 9.41107 4.25862L5.65894 8.0283C5.52362 8.16455 5.43777 8.34215 5.41504 8.53283C5.3923 8.72351 5.43401 8.91631 5.5335 9.08056L7.53078 12.3849C7.64097 12.5734 7.79891 12.7294 7.98868 12.8374C8.17845 12.9453 8.39332 13.0013 8.61164 12.9997C8.66588 13.0008 8.72015 12.9987 8.77413 12.9932C9.01974 12.9626 9.251 12.8607 9.43938 12.7002C9.62776 12.5396 9.76501 12.3274 9.83419 12.0898L12.9357 1.64194C13.0017 1.42281 13.0076 1.18997 12.9527 0.967796C12.8978 0.745627 12.7842 0.542297 12.6238 0.379095" fill="#5B87B9"/>
</svg>
