<svg width="28" height="28" viewBox="0 0 28 28" fill="none" xmlns="http://www.w3.org/2000/svg">
<mask id="mask0_50_11558" style="mask-type:luminance" maskUnits="userSpaceOnUse" x="2" y="2" width="23" height="25">
<path fill-rule="evenodd" clip-rule="evenodd" d="M2.33398 2.33398H24.833V26.5085H2.33398V2.33398Z" fill="white"/>
</mask>
<g mask="url(#mask0_50_11558)">
<path fill-rule="evenodd" clip-rule="evenodd" d="M8.40336 20.3473C8.67052 20.3473 8.93769 20.3812 9.19902 20.4512C9.98769 20.6635 10.6725 21.1908 11.0785 21.899C11.3422 22.3435 11.488 22.8626 11.4927 23.3923C11.4927 24.1507 12.1017 24.7585 12.8507 24.7585H14.3125C15.058 24.7585 15.667 24.1542 15.6705 23.4086C15.6659 22.585 15.9879 21.8022 16.577 21.213C17.158 20.632 17.97 20.2831 18.782 20.3065C19.314 20.3193 19.8262 20.4628 20.2777 20.7195C20.9275 21.0917 21.757 20.87 22.1327 20.2283L22.9074 18.9368C23.08 18.6393 23.1302 18.266 23.038 17.9218C22.947 17.5777 22.7184 17.279 22.4104 17.1028C21.6894 16.6875 21.1749 16.0178 20.9614 15.2152C20.7502 14.4277 20.8657 13.5678 21.2775 12.8597C21.5459 12.393 21.939 11.9998 22.4104 11.7292C23.0427 11.3593 23.2644 10.5322 22.8969 9.88815C22.8817 9.86248 22.8677 9.83565 22.856 9.80765L22.1724 8.62232C21.8002 7.97482 20.9719 7.75198 20.322 8.12182C19.6197 8.53715 18.7844 8.65615 17.9817 8.44498C17.1802 8.23732 16.5082 7.72982 16.0894 7.01348C15.821 6.56548 15.6752 6.04398 15.6705 5.51315C15.681 5.11415 15.541 4.75598 15.2867 4.49348C15.0335 4.23215 14.6777 4.08398 14.3125 4.08398H12.8507C12.489 4.08398 12.1507 4.22515 11.8952 4.47948C11.6409 4.73498 11.502 5.07448 11.5044 5.43615C11.4799 7.14182 10.0857 8.51498 8.39752 8.51498C7.85619 8.50915 7.33469 8.36332 6.88202 8.09265C6.24619 7.73098 5.41552 7.95382 5.04336 8.60132L4.25352 9.89982C3.89186 10.5275 4.11352 11.357 4.75752 11.7315C5.71302 12.2845 6.30919 13.3158 6.30919 14.4218C6.30919 15.5278 5.71302 16.558 4.75519 17.1122C4.11469 17.4832 3.89302 18.308 4.26402 18.9496L5.00019 20.219C5.18219 20.5468 5.47969 20.7837 5.82386 20.8805C6.16686 20.9762 6.54486 20.9353 6.85986 20.7603C7.32302 20.4885 7.86202 20.3473 8.40336 20.3473ZM14.3125 26.5085H12.8507C11.1369 26.5085 9.74269 25.1155 9.74269 23.4017C9.74036 23.1905 9.67969 22.9711 9.56652 22.781C9.38336 22.4613 9.08702 22.2327 8.74519 22.1417C8.40569 22.0507 8.03352 22.1008 7.72786 22.2781C6.99519 22.6865 6.13302 22.7857 5.34436 22.564C4.55686 22.3412 3.87669 21.7998 3.47769 21.0823L2.74852 19.8258C1.89569 18.3465 2.40319 16.4507 3.88019 15.5967C4.29902 15.3552 4.55919 14.9048 4.55919 14.4218C4.55919 13.9388 4.29902 13.4873 3.88019 13.2458C2.40202 12.3872 1.89569 10.4867 2.74736 9.00732L3.53836 7.70882C4.37952 6.24582 6.28119 5.73015 7.76402 6.58182C7.96586 6.70198 8.18519 6.76265 8.40802 6.76498C9.13486 6.76498 9.74269 6.16532 9.75436 5.42798C9.74969 4.61482 10.0705 3.83432 10.655 3.24515C11.2419 2.65715 12.0212 2.33398 12.8507 2.33398H14.3125C15.1479 2.33398 15.9599 2.67698 16.542 3.27315C17.123 3.87282 17.4439 4.69532 17.4194 5.52948C17.4217 5.71732 17.4835 5.93432 17.5955 6.12448C17.781 6.43948 18.0739 6.66115 18.4215 6.75215C18.7692 6.83848 19.1332 6.79182 19.4424 6.60865C20.9357 5.75582 22.8362 6.26682 23.689 7.74848L24.4159 9.00732C24.4345 9.04115 24.4509 9.07382 24.4649 9.10765C25.2372 10.5672 24.7215 12.4047 23.2865 13.2435C23.0777 13.3637 22.9085 13.5317 22.7919 13.7347C22.611 14.0485 22.5609 14.4218 22.6519 14.7648C22.7452 15.1148 22.968 15.4053 23.2819 15.585C23.99 15.9922 24.5185 16.6782 24.7297 17.4703C24.9409 18.2613 24.8254 19.12 24.4135 19.8281L23.6389 21.1185C22.786 22.5838 20.8855 23.0913 19.4074 22.2373C19.2102 22.1241 18.9827 22.0623 18.7564 22.0565H18.7494C18.4122 22.0565 18.0657 22.2 17.8137 22.4508C17.5582 22.7063 17.4182 23.047 17.4205 23.4086C17.4124 25.1225 16.0182 26.5085 14.3125 26.5085Z" fill="#212121"/>
</g>
<path fill-rule="evenodd" clip-rule="evenodd" d="M13.5871 12.2207C12.3737 12.2207 11.3867 13.2089 11.3867 14.4222C11.3867 15.6355 12.3737 16.6214 13.5871 16.6214C14.8004 16.6214 15.7874 15.6355 15.7874 14.4222C15.7874 13.2089 14.8004 12.2207 13.5871 12.2207ZM13.5871 18.3714C11.4089 18.3714 9.63672 16.6004 9.63672 14.4222C9.63672 12.244 11.4089 10.4707 13.5871 10.4707C15.7652 10.4707 17.5374 12.244 17.5374 14.4222C17.5374 16.6004 15.7652 18.3714 13.5871 18.3714Z" fill="#212121"/>
</svg>
