<svg width="28" height="28" viewBox="0 0 28 28" fill="none" xmlns="http://www.w3.org/2000/svg">
<path d="M6.91602 10.375V19.2332C6.91602 21.3209 6.91602 22.3654 7.59156 23.0144C9.10636 24.4693 18.2781 24.739 20.0742 23.0144C20.7497 22.3642 20.7497 21.3209 20.7497 19.2332V10.375" stroke="#AD24AF" stroke-width="2.59382" stroke-linecap="round" stroke-linejoin="round"/>
<path d="M6.6162 13.8334L3.50822 10.8245C2.70587 10.0464 2.30469 9.6602 2.30469 9.17602C2.30469 8.69415 2.70587 8.30565 3.50707 7.52981L5.81384 5.29797C6.21387 4.91062 6.41331 4.71695 6.65194 4.57515C6.89057 4.43221 7.15917 4.34574 7.69408 4.17282L9.5916 3.56068C9.86828 3.47076 10.0078 3.42695 10.1023 3.47998C10.1968 3.53417 10.2268 3.68864 10.2867 3.99875C10.598 5.62075 12.0667 6.8485 13.8328 6.8485C15.5989 6.8485 17.0676 5.62075 17.38 3.99875C17.4388 3.68864 17.4688 3.53417 17.5644 3.47998C17.6567 3.42695 17.7962 3.47076 18.074 3.56068L19.9715 4.17282C20.5076 4.34574 20.7762 4.43221 21.0137 4.57515C21.2511 4.7181 21.4517 4.91062 21.8517 5.29797L24.1574 7.52981C24.9609 8.3068 25.3609 8.6953 25.3609 9.17717C25.3609 9.65905 24.9597 10.0475 24.1585 10.8234L21.0482 13.8334" stroke="#AD24AF" stroke-width="2.59382" stroke-linecap="round" stroke-linejoin="round"/>
</svg>
