<svg width="20" height="20" viewBox="0 0 20 20" fill="none" xmlns="http://www.w3.org/2000/svg">
<path d="M9.02246 2.71289C9.86407 2.75407 10.5838 3.38736 10.8594 4.3252C10.936 4.6241 10.9798 4.91675 11.0303 5.39258L11.0967 6.0166C11.232 7.463 11.2278 13.1446 11.084 14.3164L10.9951 15.1562C10.9598 15.4393 10.9194 15.6574 10.8535 15.9072C10.5689 16.8762 9.78347 17.5255 8.91504 17.499C8.47301 17.5101 7.93409 17.2809 7.55957 16.96L4.6084 14.5156L3.08984 14.5166C1.97095 14.5166 1.17329 13.7501 0.977539 12.582L0.956055 12.4277C0.790331 11.2266 0.795535 9.04306 0.956055 7.73047C1.11679 6.55965 1.95569 5.69536 3.08984 5.69531H4.60742L7.48535 3.30469C7.83358 3.00405 8.35305 2.75635 8.77539 2.7168L8.90527 2.71191L9.02246 2.71289ZM16.249 2.61328C16.5309 2.41345 16.9182 2.48507 17.1143 2.77246C18.4332 4.70613 19.167 7.23375 19.167 9.95215C19.1669 12.6707 18.4331 15.1994 17.1143 17.1328C16.9181 17.4198 16.5308 17.4907 16.249 17.291C15.9673 17.0912 15.898 16.6965 16.0938 16.4092C17.2634 14.6944 17.9228 12.4188 17.9229 9.95215C17.9229 7.48571 17.2635 5.21108 16.0938 3.49609C15.8977 3.20873 15.9672 2.81313 16.249 2.61328ZM8.88574 3.97949C8.78516 3.9775 8.46252 4.12126 8.2793 4.2793L5.22168 6.82031C5.11078 6.91246 4.97217 6.96285 4.8291 6.96289H3.08887C2.61812 6.96318 2.26698 7.32545 2.18848 7.89648C2.04222 9.0929 2.0371 11.1657 2.18848 12.2637C2.26714 12.9237 2.58534 13.2488 3.08887 13.249H4.8291C4.97172 13.2491 5.10997 13.299 5.2207 13.3906L8.35156 15.9824C8.51809 16.1251 8.77391 16.2339 8.91699 16.2314C9.2258 16.2406 9.53136 15.9888 9.65723 15.5615C9.72265 15.3127 9.75661 15.0792 9.79883 14.6514L9.82617 14.373L9.85059 14.1602C9.98621 13.0531 9.98552 7.15582 9.84961 6.04883L9.76172 5.24609C9.7409 5.07687 9.72071 4.94214 9.69824 4.82715L9.66211 4.66699C9.53118 4.2225 9.22529 3.96935 8.91699 3.97852L8.88574 3.97949ZM13.4053 5.2002C13.6872 5.0004 14.0745 5.071 14.2705 5.3584C15.1173 6.60007 15.5859 8.21728 15.5859 9.95215C15.5859 11.6868 15.1174 13.3031 14.2705 14.5449C14.0746 14.8322 13.6872 14.9036 13.4053 14.7041C13.1233 14.5043 13.053 14.1087 13.249 13.8213C13.9469 12.7981 14.3428 11.435 14.3428 9.95215C14.3428 8.46908 13.9468 7.10507 13.249 6.08203C13.0531 5.79464 13.1234 5.39999 13.4053 5.2002Z" fill="#1C1C1C"/>
</svg>
